<?xml version="1.0" encoding="UTF-8"?>
<svg xmlns="http://www.w3.org/2000/svg" xmlns:xlink="http://www.w3.org/1999/xlink" width="512" height="356" viewBox="0 0 512 356">
<defs>
<g>
<g id="glyph-0-0-d0c34d06">
<path d="M 6.484375 -5.40625 C 6.484375 -4.140625 5.59375 -3.25 4.34375 -3.25 C 4.34375 -3.25 1.9375 -3.25 1.9375 -3.25 C 1.9375 -3.25 1.9375 0 1.9375 0 C 1.9375 0 0.953125 0 0.953125 0 C 0.953125 0 0.953125 -7.65625 0.953125 -7.65625 C 0.953125 -7.65625 4.109375 -7.65625 4.109375 -7.65625 C 5.625 -7.65625 6.484375 -6.84375 6.484375 -5.40625 Z M 5.453125 -5.453125 C 5.453125 -6.296875 4.90625 -6.796875 3.96875 -6.796875 C 3.96875 -6.796875 1.9375 -6.796875 1.9375 -6.796875 C 1.9375 -6.796875 1.9375 -4.109375 1.9375 -4.109375 C 1.9375 -4.109375 3.96875 -4.109375 3.96875 -4.109375 C 4.90625 -4.109375 5.453125 -4.609375 5.453125 -5.453125 Z M 5.453125 -5.453125 "/>
</g>
<g id="glyph-0-1-d0c34d06">
<path d="M 5.015625 -1.890625 C 4.90625 -0.625 4.078125 0.15625 2.765625 0.15625 C 1.265625 0.15625 0.328125 -0.921875 0.328125 -2.703125 C 0.328125 -4.53125 1.296875 -5.65625 2.765625 -5.65625 C 4 -5.65625 4.84375 -5 4.953125 -3.65625 C 4.953125 -3.65625 4.0625 -3.65625 4.0625 -3.65625 C 3.953125 -4.421875 3.5 -4.84375 2.765625 -4.84375 C 1.8125 -4.84375 1.234375 -4.078125 1.234375 -2.703125 C 1.234375 -1.390625 1.8125 -0.65625 2.78125 -0.65625 C 3.53125 -0.65625 3.984375 -1.015625 4.125 -1.890625 C 4.125 -1.890625 5.015625 -1.890625 5.015625 -1.890625 Z M 5.015625 -1.890625 "/>
</g>
<g id="glyph-0-2-d0c34d06">
<path d="M 5.359375 -5.265625 C 5.359375 -4.34375 4.828125 -3.5625 3.796875 -3.015625 C 3.796875 -3.015625 2.734375 -2.453125 2.734375 -2.453125 C 1.828125 -1.90625 1.484375 -1.515625 1.390625 -0.90625 C 1.390625 -0.90625 5.3125 -0.90625 5.3125 -0.90625 C 5.3125 -0.90625 5.3125 0 5.3125 0 C 5.3125 0 0.359375 0 0.359375 0 C 0.4375 -1.640625 0.890625 -2.34375 2.453125 -3.21875 C 2.453125 -3.21875 3.40625 -3.765625 3.40625 -3.765625 C 4.078125 -4.140625 4.421875 -4.65625 4.421875 -5.234375 C 4.421875 -6.03125 3.796875 -6.640625 2.953125 -6.640625 C 2.03125 -6.640625 1.515625 -6.109375 1.453125 -4.859375 C 1.453125 -4.859375 0.53125 -4.859375 0.53125 -4.859375 C 0.578125 -6.671875 1.453125 -7.4375 2.984375 -7.4375 C 4.390625 -7.4375 5.359375 -6.515625 5.359375 -5.265625 Z M 5.359375 -5.265625 "/>
</g>
<g id="glyph-0-3-d0c34d06">
<path d="M 5.3125 -2.15625 C 5.3125 -0.75 4.328125 0.15625 2.796875 0.15625 C 1.265625 0.15625 0.453125 -0.59375 0.34375 -2.25 C 0.34375 -2.25 1.265625 -2.25 1.265625 -2.25 C 1.328125 -1.171875 1.8125 -0.65625 2.828125 -0.65625 C 3.796875 -0.65625 4.375 -1.21875 4.375 -2.15625 C 4.375 -2.984375 3.84375 -3.46875 2.828125 -3.46875 C 2.828125 -3.46875 2.328125 -3.46875 2.328125 -3.46875 C 2.328125 -3.46875 2.328125 -4.234375 2.328125 -4.234375 C 3.796875 -4.234375 4.140625 -4.5625 4.140625 -5.359375 C 4.140625 -6.15625 3.65625 -6.640625 2.828125 -6.640625 C 1.890625 -6.640625 1.4375 -6.140625 1.421875 -5.046875 C 1.421875 -5.046875 0.5 -5.046875 0.5 -5.046875 C 0.53125 -6.625 1.328125 -7.4375 2.828125 -7.4375 C 4.234375 -7.4375 5.09375 -6.671875 5.09375 -5.390625 C 5.09375 -4.65625 4.75 -4.171875 4.046875 -3.890625 C 4.953125 -3.59375 5.3125 -3.0625 5.3125 -2.15625 Z M 5.3125 -2.15625 "/>
</g>
<g id="glyph-1-0-d0c34d06">
<path d="M 1.578125 0 C 1.578125 0 0.71875 0 0.71875 0 C 0.71875 0 0.71875 -7.65625 0.71875 -7.65625 C 0.71875 -7.65625 1.578125 -7.65625 1.578125 -7.65625 C 1.578125 -7.65625 1.578125 0 1.578125 0 Z M 1.578125 0 "/>
</g>
<g id="glyph-1-1-d0c34d06">
<path d="M 5.625 -0.015625 C 5.328125 0.046875 5.203125 0.078125 5.015625 0.078125 C 4.59375 0.078125 4.203125 -0.234375 4.109375 -0.65625 C 3.640625 -0.140625 2.953125 0.15625 2.25 0.15625 C 1.140625 0.15625 0.4375 -0.4375 0.4375 -1.421875 C 0.4375 -2.09375 0.765625 -2.59375 1.40625 -2.859375 C 1.75 -3 1.9375 -3.03125 3.171875 -3.1875 C 3.859375 -3.28125 4.078125 -3.4375 4.078125 -3.796875 C 4.078125 -3.796875 4.078125 -4.03125 4.078125 -4.03125 C 4.078125 -4.5625 3.640625 -4.84375 2.859375 -4.84375 C 2.03125 -4.84375 1.640625 -4.546875 1.5625 -3.875 C 1.5625 -3.875 0.6875 -3.875 0.6875 -3.875 C 0.734375 -5.140625 1.546875 -5.65625 2.890625 -5.65625 C 4.234375 -5.65625 4.953125 -5.140625 4.953125 -4.15625 C 4.953125 -4.15625 4.953125 -1.09375 4.953125 -1.09375 C 4.953125 -0.8125 5.125 -0.65625 5.421875 -0.65625 C 5.484375 -0.65625 5.515625 -0.65625 5.625 -0.6875 C 5.625 -0.6875 5.625 -0.015625 5.625 -0.015625 Z M 4.078125 -1.90625 C 4.078125 -1.90625 4.078125 -2.71875 4.078125 -2.71875 C 3.796875 -2.578125 3.59375 -2.546875 2.671875 -2.421875 C 1.75 -2.28125 1.359375 -2.03125 1.359375 -1.453125 C 1.359375 -0.84375 1.75 -0.609375 2.4375 -0.609375 C 3.28125 -0.609375 4.078125 -1.109375 4.078125 -1.90625 Z M 4.078125 -1.90625 "/>
</g>
<g id="glyph-2-0-d0c34d06">
<path d="M 4.8125 -1.546875 C 4.8125 -0.484375 3.9375 0.15625 2.546875 0.15625 C 1.109375 0.15625 0.40625 -0.40625 0.359375 -1.6875 C 0.359375 -1.6875 1.28125 -1.6875 1.28125 -1.6875 C 1.390625 -0.84375 1.84375 -0.65625 2.625 -0.65625 C 3.390625 -0.65625 3.90625 -0.953125 3.90625 -1.46875 C 3.90625 -1.875 3.671875 -2.046875 3.0625 -2.1875 C 3.0625 -2.1875 2.234375 -2.390625 2.234375 -2.390625 C 0.9375 -2.703125 0.5 -3.125 0.5 -3.984375 C 0.5 -5 1.328125 -5.65625 2.609375 -5.65625 C 3.875 -5.65625 4.59375 -5.046875 4.59375 -3.96875 C 4.59375 -3.96875 3.671875 -3.96875 3.671875 -3.96875 C 3.65625 -4.546875 3.28125 -4.84375 2.578125 -4.84375 C 1.859375 -4.84375 1.40625 -4.53125 1.40625 -4.015625 C 1.40625 -3.640625 1.71875 -3.40625 2.421875 -3.234375 C 2.421875 -3.234375 3.265625 -3.03125 3.265625 -3.03125 C 4.359375 -2.765625 4.8125 -2.359375 4.8125 -1.546875 Z M 4.8125 -1.546875 "/>
</g>
<g id="glyph-3-0-d0c34d06">
<path d="M 3.640625 0 C 3.640625 0 2.71875 0 2.71875 0 C 2.71875 0 2.71875 -5.296875 2.71875 -5.296875 C 2.71875 -5.296875 1.078125 -5.296875 1.078125 -5.296875 C 1.078125 -5.296875 1.078125 -5.96875 1.078125 -5.96875 C 2.5 -6.140625 2.703125 -6.296875 3.03125 -7.4375 C 3.03125 -7.4375 3.640625 -7.4375 3.640625 -7.4375 C 3.640625 -7.4375 3.640625 0 3.640625 0 Z M 3.640625 0 "/>
</g>
<g id="glyph-4-0-d0c34d06">
<path d="M -6.796875 -6.078125 C -6.796875 -6.078125 -6.796875 -1.921875 -6.796875 -1.921875 C -6.796875 -1.921875 -4.34375 -1.921875 -4.34375 -1.921875 C -4.34375 -1.921875 -4.34375 -5.578125 -4.34375 -5.578125 C -4.34375 -5.578125 -3.484375 -5.578125 -3.484375 -5.578125 C -3.484375 -5.578125 -3.484375 -1.921875 -3.484375 -1.921875 C -3.484375 -1.921875 0 -1.921875 0 -1.921875 C 0 -1.921875 0 -0.9375 0 -0.9375 C 0 -0.9375 -7.65625 -0.9375 -7.65625 -0.9375 C -7.65625 -0.9375 -7.65625 -6.078125 -7.65625 -6.078125 C -7.65625 -6.078125 -6.796875 -6.078125 -6.796875 -6.078125 Z M -6.796875 -6.078125 "/>
</g>
<g id="glyph-4-1-d0c34d06">
<path d="M -0.015625 -5.625 C 0.046875 -5.328125 0.078125 -5.203125 0.078125 -5.015625 C 0.078125 -4.59375 -0.234375 -4.203125 -0.65625 -4.109375 C -0.140625 -3.640625 0.15625 -2.953125 0.15625 -2.25 C 0.15625 -1.140625 -0.4375 -0.4375 -1.421875 -0.4375 C -2.09375 -0.4375 -2.59375 -0.765625 -2.859375 -1.40625 C -3 -1.75 -3.03125 -1.9375 -3.1875 -3.171875 C -3.28125 -3.859375 -3.4375 -4.078125 -3.796875 -4.078125 C -3.796875 -4.078125 -4.03125 -4.078125 -4.03125 -4.078125 C -4.5625 -4.078125 -4.84375 -3.640625 -4.84375 -2.859375 C -4.84375 -2.03125 -4.546875 -1.640625 -3.875 -1.5625 C -3.875 -1.5625 -3.875 -0.6875 -3.875 -0.6875 C -5.140625 -0.734375 -5.65625 -1.546875 -5.65625 -2.890625 C -5.65625 -4.234375 -5.140625 -4.953125 -4.15625 -4.953125 C -4.15625 -4.953125 -1.09375 -4.953125 -1.09375 -4.953125 C -0.8125 -4.953125 -0.65625 -5.125 -0.65625 -5.421875 C -0.65625 -5.484375 -0.65625 -5.515625 -0.6875 -5.625 C -0.6875 -5.625 -0.015625 -5.625 -0.015625 -5.625 Z M -1.90625 -4.078125 C -1.90625 -4.078125 -2.71875 -4.078125 -2.71875 -4.078125 C -2.578125 -3.796875 -2.546875 -3.59375 -2.421875 -2.671875 C -2.28125 -1.75 -2.03125 -1.359375 -1.453125 -1.359375 C -0.84375 -1.359375 -0.609375 -1.75 -0.609375 -2.4375 C -0.609375 -3.28125 -1.109375 -4.078125 -1.90625 -4.078125 Z M -1.90625 -4.078125 "/>
</g>
<g id="glyph-5-0-d0c34d06">
<path d="M -4.734375 -3.375 C -4.71875 -2.015625 -4.09375 -1.609375 -2.859375 -1.609375 C -2.859375 -1.609375 0 -1.609375 0 -1.609375 C 0 -1.609375 0 -0.734375 0 -0.734375 C 0 -0.734375 -5.5 -0.734375 -5.5 -0.734375 C -5.5 -0.734375 -5.5 -1.53125 -5.5 -1.53125 C -5.5 -1.53125 -4.5 -1.53125 -4.5 -1.53125 C -5.328125 -2.03125 -5.65625 -2.46875 -5.65625 -3.03125 C -5.65625 -3.15625 -5.65625 -3.21875 -5.625 -3.375 C -5.625 -3.375 -4.734375 -3.375 -4.734375 -3.375 Z M -4.734375 -3.375 "/>
</g>
<g id="glyph-5-1-d0c34d06">
<path d="M -2.5 -5.390625 C -2.5 -5.390625 -2.5 -1.328125 -2.5 -1.328125 C -1.234375 -1.359375 -0.65625 -2.03125 -0.65625 -2.953125 C -0.65625 -3.65625 -0.9375 -4.140625 -1.671875 -4.390625 C -1.671875 -4.390625 -1.671875 -5.265625 -1.671875 -5.265625 C -0.5625 -5.046875 0.15625 -4.171875 0.15625 -2.921875 C 0.15625 -1.375 -0.90625 -0.421875 -2.71875 -0.421875 C -4.53125 -0.421875 -5.65625 -1.40625 -5.65625 -2.9375 C -5.65625 -3.96875 -5.109375 -4.8125 -4.203125 -5.171875 C -3.796875 -5.328125 -3.296875 -5.390625 -2.5 -5.390625 Z M -3.28125 -4.453125 C -4.140625 -4.453125 -4.84375 -3.796875 -4.84375 -2.921875 C -4.84375 -2.046875 -4.1875 -1.421875 -3.21875 -1.359375 C -3.21875 -1.359375 -3.21875 -4.4375 -3.21875 -4.4375 C -3.234375 -4.453125 -3.28125 -4.453125 -3.28125 -4.453125 Z M -3.28125 -4.453125 "/>
</g>
<g id="glyph-6-0-d0c34d06">
<path d="M 5.328125 -3.578125 C 5.328125 -1.140625 4.46875 0.15625 2.890625 0.15625 C 1.296875 0.15625 0.453125 -1.140625 0.453125 -3.640625 C 0.453125 -6.140625 1.28125 -7.4375 2.890625 -7.4375 C 4.5 -7.4375 5.328125 -6.15625 5.328125 -3.578125 Z M 4.375 -3.671875 C 4.375 -5.65625 3.890625 -6.625 2.890625 -6.625 C 1.890625 -6.625 1.390625 -5.671875 1.390625 -3.640625 C 1.390625 -1.59375 1.890625 -0.609375 2.859375 -0.609375 C 3.890625 -0.609375 4.375 -1.546875 4.375 -3.671875 Z M 4.375 -3.671875 "/>
</g>
<g id="glyph-7-0-d0c34d06">
<path d="M 5.359375 -5.265625 C 5.359375 -4.34375 4.828125 -3.5625 3.796875 -3.015625 C 3.796875 -3.015625 2.734375 -2.453125 2.734375 -2.453125 C 1.828125 -1.90625 1.484375 -1.515625 1.390625 -0.90625 C 1.390625 -0.90625 5.3125 -0.90625 5.3125 -0.90625 C 5.3125 -0.90625 5.3125 0 5.3125 0 C 5.3125 0 0.359375 0 0.359375 0 C 0.4375 -1.640625 0.890625 -2.34375 2.453125 -3.21875 C 2.453125 -3.21875 3.40625 -3.765625 3.40625 -3.765625 C 4.078125 -4.140625 4.421875 -4.65625 4.421875 -5.234375 C 4.421875 -6.03125 3.796875 -6.640625 2.953125 -6.640625 C 2.03125 -6.640625 1.515625 -6.109375 1.453125 -4.859375 C 1.453125 -4.859375 0.53125 -4.859375 0.53125 -4.859375 C 0.578125 -6.671875 1.453125 -7.4375 2.984375 -7.4375 C 4.390625 -7.4375 5.359375 -6.515625 5.359375 -5.265625 Z M 5.359375 -5.265625 "/>
</g>
<g id="glyph-7-1-d0c34d06">
<path d="M 5.328125 -3.578125 C 5.328125 -1.140625 4.46875 0.15625 2.890625 0.15625 C 1.296875 0.15625 0.453125 -1.140625 0.453125 -3.640625 C 0.453125 -6.140625 1.28125 -7.4375 2.890625 -7.4375 C 4.5 -7.4375 5.328125 -6.15625 5.328125 -3.578125 Z M 4.375 -3.671875 C 4.375 -5.65625 3.890625 -6.625 2.890625 -6.625 C 1.890625 -6.625 1.390625 -5.671875 1.390625 -3.640625 C 1.390625 -1.59375 1.890625 -0.609375 2.859375 -0.609375 C 3.890625 -0.609375 4.375 -1.546875 4.375 -3.671875 Z M 4.375 -3.671875 "/>
</g>
<g id="glyph-8-0-d0c34d06">
<path d="M 5.453125 -1.78125 C 5.453125 -1.78125 4.359375 -1.78125 4.359375 -1.78125 C 4.359375 -1.78125 4.359375 0 4.359375 0 C 4.359375 0 3.4375 0 3.4375 0 C 3.4375 0 3.4375 -1.78125 3.4375 -1.78125 C 3.4375 -1.78125 0.296875 -1.78125 0.296875 -1.78125 C 0.296875 -1.78125 0.296875 -2.765625 0.296875 -2.765625 C 0.296875 -2.765625 3.671875 -7.4375 3.671875 -7.4375 C 3.671875 -7.4375 4.359375 -7.4375 4.359375 -7.4375 C 4.359375 -7.4375 4.359375 -2.609375 4.359375 -2.609375 C 4.359375 -2.609375 5.453125 -2.609375 5.453125 -2.609375 C 5.453125 -2.609375 5.453125 -1.78125 5.453125 -1.78125 Z M 3.4375 -2.609375 C 3.4375 -2.609375 3.4375 -5.875 3.4375 -5.875 C 3.4375 -5.875 1.109375 -2.609375 1.109375 -2.609375 C 1.109375 -2.609375 3.4375 -2.609375 3.4375 -2.609375 Z M 3.4375 -2.609375 "/>
</g>
<g id="glyph-8-1-d0c34d06">
<path d="M 5.328125 -3.578125 C 5.328125 -1.140625 4.46875 0.15625 2.890625 0.15625 C 1.296875 0.15625 0.453125 -1.140625 0.453125 -3.640625 C 0.453125 -6.140625 1.28125 -7.4375 2.890625 -7.4375 C 4.5 -7.4375 5.328125 -6.15625 5.328125 -3.578125 Z M 4.375 -3.671875 C 4.375 -5.65625 3.890625 -6.625 2.890625 -6.625 C 1.890625 -6.625 1.390625 -5.671875 1.390625 -3.640625 C 1.390625 -1.59375 1.890625 -0.609375 2.859375 -0.609375 C 3.890625 -0.609375 4.375 -1.546875 4.375 -3.671875 Z M 4.375 -3.671875 "/>
</g>
<g id="glyph-9-0-d0c34d06">
<path d="M 5.328125 -3.578125 C 5.328125 -1.140625 4.46875 0.15625 2.890625 0.15625 C 1.296875 0.15625 0.453125 -1.140625 0.453125 -3.640625 C 0.453125 -6.140625 1.28125 -7.4375 2.890625 -7.4375 C 4.5 -7.4375 5.328125 -6.15625 5.328125 -3.578125 Z M 4.375 -3.671875 C 4.375 -5.65625 3.890625 -6.625 2.890625 -6.625 C 1.890625 -6.625 1.390625 -5.671875 1.390625 -3.640625 C 1.390625 -1.59375 1.890625 -0.609375 2.859375 -0.609375 C 3.890625 -0.609375 4.375 -1.546875 4.375 -3.671875 Z M 4.375 -3.671875 "/>
</g>
</g>
</defs>
<path fill-rule="nonzero" fill="rgb(100%, 100%, 100%)" fill-opacity="1" d="M 0 0 L 512.25 0 L 512.25 355.5 L 0 355.5 Z M 0 0 "/>
<path fill-rule="nonzero" fill="rgb(92.156863%, 92.156863%, 92.156863%)" fill-opacity="1" d="M 50.25 312 L 500.25 312 L 500.25 12 L 50.25 12 Z M 50.25 312 "/>
<path fill="none" stroke-width="1.5" stroke-linecap="butt" stroke-linejoin="miter" stroke="rgb(100%, 100%, 100%)" stroke-opacity="1" stroke-miterlimit="2" d="M 172.192708 416 L 172.192708 16 " transform="matrix(0.75, 0, 0, 0.75, 0, 0)"/>
<path fill="none" stroke-width="1.5" stroke-linecap="butt" stroke-linejoin="miter" stroke="rgb(100%, 100%, 100%)" stroke-opacity="1" stroke-miterlimit="2" d="M 367 416 L 367 16 " transform="matrix(0.75, 0, 0, 0.75, 0, 0)"/>
<path fill="none" stroke-width="1.5" stroke-linecap="butt" stroke-linejoin="miter" stroke="rgb(100%, 100%, 100%)" stroke-opacity="1" stroke-miterlimit="2" d="M 561.807292 416 L 561.807292 16 " transform="matrix(0.75, 0, 0, 0.75, 0, 0)"/>
<path fill="none" stroke-width="1" stroke-linecap="butt" stroke-linejoin="miter" stroke="rgb(100%, 100%, 100%)" stroke-opacity="0.5" stroke-miterlimit="2" d="M 74.791667 416 L 74.791667 16 " transform="matrix(0.75, 0, 0, 0.75, 0, 0)"/>
<path fill="none" stroke-width="1" stroke-linecap="butt" stroke-linejoin="miter" stroke="rgb(100%, 100%, 100%)" stroke-opacity="0.5" stroke-miterlimit="2" d="M 269.598958 416 L 269.598958 16 " transform="matrix(0.75, 0, 0, 0.75, 0, 0)"/>
<path fill="none" stroke-width="1" stroke-linecap="butt" stroke-linejoin="miter" stroke="rgb(100%, 100%, 100%)" stroke-opacity="0.5" stroke-miterlimit="2" d="M 464.401042 416 L 464.401042 16 " transform="matrix(0.75, 0, 0, 0.75, 0, 0)"/>
<path fill="none" stroke-width="1" stroke-linecap="butt" stroke-linejoin="miter" stroke="rgb(100%, 100%, 100%)" stroke-opacity="0.5" stroke-miterlimit="2" d="M 659.208333 416 L 659.208333 16 " transform="matrix(0.75, 0, 0, 0.75, 0, 0)"/>
<path fill="none" stroke-width="1.5" stroke-linecap="butt" stroke-linejoin="miter" stroke="rgb(100%, 100%, 100%)" stroke-opacity="1" stroke-miterlimit="2" d="M 67 397.817708 L 667 397.817708 " transform="matrix(0.75, 0, 0, 0.75, 0, 0)"/>
<path fill="none" stroke-width="1.5" stroke-linecap="butt" stroke-linejoin="miter" stroke="rgb(100%, 100%, 100%)" stroke-opacity="1" stroke-miterlimit="2" d="M 67 255.864583 L 667 255.864583 " transform="matrix(0.75, 0, 0, 0.75, 0, 0)"/>
<path fill="none" stroke-width="1.5" stroke-linecap="butt" stroke-linejoin="miter" stroke="rgb(100%, 100%, 100%)" stroke-opacity="1" stroke-miterlimit="2" d="M 67 113.911458 L 667 113.911458 " transform="matrix(0.75, 0, 0, 0.75, 0, 0)"/>
<path fill="none" stroke-width="1" stroke-linecap="butt" stroke-linejoin="miter" stroke="rgb(100%, 100%, 100%)" stroke-opacity="0.5" stroke-miterlimit="2" d="M 67 326.838542 L 667 326.838542 " transform="matrix(0.75, 0, 0, 0.75, 0, 0)"/>
<path fill="none" stroke-width="1" stroke-linecap="butt" stroke-linejoin="miter" stroke="rgb(100%, 100%, 100%)" stroke-opacity="0.5" stroke-miterlimit="2" d="M 67 184.885417 L 667 184.885417 " transform="matrix(0.75, 0, 0, 0.75, 0, 0)"/>
<path fill="none" stroke-width="1" stroke-linecap="butt" stroke-linejoin="miter" stroke="rgb(100%, 100%, 100%)" stroke-opacity="0.5" stroke-miterlimit="2" d="M 67 42.932292 L 667 42.932292 " transform="matrix(0.75, 0, 0, 0.75, 0, 0)"/>
<g fill="rgb(0%, 0%, 0%)" fill-opacity="1">
<use xlink:href="#glyph-0-0-d0c34d06" x="259.78878" y="340.925995"/>
</g>
<g fill="rgb(0%, 0%, 0%)" fill-opacity="1">
<use xlink:href="#glyph-0-1-d0c34d06" x="266.792244" y="340.925995"/>
</g>
<g fill="rgb(0%, 0%, 0%)" fill-opacity="1">
<use xlink:href="#glyph-1-0-d0c34d06" x="272.042244" y="340.925995"/>
</g>
<g fill="rgb(0%, 0%, 0%)" fill-opacity="1">
<use xlink:href="#glyph-1-1-d0c34d06" x="274.373245" y="340.925995"/>
</g>
<g fill="rgb(0%, 0%, 0%)" fill-opacity="1">
<use xlink:href="#glyph-2-0-d0c34d06" x="280.211288" y="340.925995"/>
</g>
<g fill="rgb(0%, 0%, 0%)" fill-opacity="1">
<use xlink:href="#glyph-2-0-d0c34d06" x="285.461288" y="340.925995"/>
</g>
<g fill="rgb(30.980393%, 30.980393%, 30.980393%)" fill-opacity="1">
<use xlink:href="#glyph-3-0-d0c34d06" x="126.227097" y="326.443497"/>
</g>
<g fill="rgb(30.980393%, 30.980393%, 30.980393%)" fill-opacity="1">
<use xlink:href="#glyph-0-2-d0c34d06" x="272.331001" y="326.443497"/>
</g>
<g fill="rgb(30.980393%, 30.980393%, 30.980393%)" fill-opacity="1">
<use xlink:href="#glyph-0-3-d0c34d06" x="418.434906" y="326.443497"/>
</g>
<g fill="rgb(0%, 0%, 0%)" fill-opacity="1">
<use xlink:href="#glyph-4-0-d0c34d06" x="22.197006" y="172.793976"/>
</g>
<g fill="rgb(0%, 0%, 0%)" fill-opacity="1">
<use xlink:href="#glyph-4-1-d0c34d06" x="22.197006" y="166.378487"/>
</g>
<g fill="rgb(0%, 0%, 0%)" fill-opacity="1">
<use xlink:href="#glyph-5-0-d0c34d06" x="22.197006" y="160.540478"/>
</g>
<g fill="rgb(0%, 0%, 0%)" fill-opacity="1">
<use xlink:href="#glyph-5-1-d0c34d06" x="22.197006" y="157.043987"/>
</g>
<g fill="rgb(30.980393%, 30.980393%, 30.980393%)" fill-opacity="1">
<use xlink:href="#glyph-6-0-d0c34d06" x="38.411997" y="302.19088"/>
</g>
<g fill="rgb(30.980393%, 30.980393%, 30.980393%)" fill-opacity="1">
<use xlink:href="#glyph-7-0-d0c34d06" x="26.736011" y="195.725235"/>
</g>
<g fill="rgb(30.980393%, 30.980393%, 30.980393%)" fill-opacity="1">
<use xlink:href="#glyph-7-1-d0c34d06" x="32.574002" y="195.725235"/>
</g>
<g fill="rgb(30.980393%, 30.980393%, 30.980393%)" fill-opacity="1">
<use xlink:href="#glyph-6-0-d0c34d06" x="38.411997" y="195.725235"/>
</g>
<g fill="rgb(30.980393%, 30.980393%, 30.980393%)" fill-opacity="1">
<use xlink:href="#glyph-8-0-d0c34d06" x="26.736011" y="89.259607"/>
</g>
<g fill="rgb(30.980393%, 30.980393%, 30.980393%)" fill-opacity="1">
<use xlink:href="#glyph-8-1-d0c34d06" x="32.574002" y="89.259607"/>
</g>
<g fill="rgb(30.980393%, 30.980393%, 30.980393%)" fill-opacity="1">
<use xlink:href="#glyph-9-0-d0c34d06" x="38.411997" y="89.259607"/>
</g>
<path fill-rule="nonzero" fill="rgb(0%, 0%, 0%)" fill-opacity="0.6" d="M 131.527344 158.359375 C 131.527344 155.1875 126.765625 155.1875 126.765625 158.359375 C 126.765625 161.535156 131.527344 161.535156 131.527344 158.359375 Z M 131.527344 158.359375 "/>
<path fill-rule="nonzero" fill="rgb(0%, 0%, 0%)" fill-opacity="0.6" d="M 131.527344 158.359375 C 131.527344 155.1875 126.765625 155.1875 126.765625 158.359375 C 126.765625 161.535156 131.527344 161.535156 131.527344 158.359375 Z M 131.527344 158.359375 "/>
<path fill-rule="nonzero" fill="rgb(0%, 0%, 0%)" fill-opacity="0.6" d="M 131.527344 166.601562 C 131.527344 163.429688 126.765625 163.429688 126.765625 166.601562 C 126.765625 169.773438 131.527344 169.773438 131.527344 166.601562 Z M 131.527344 166.601562 "/>
<path fill-rule="nonzero" fill="rgb(0%, 0%, 0%)" fill-opacity="0.6" d="M 131.527344 25.636719 C 131.527344 22.464844 126.765625 22.464844 126.765625 25.636719 C 126.765625 28.808594 131.527344 28.808594 131.527344 25.636719 Z M 131.527344 25.636719 "/>
<path fill-rule="nonzero" fill="rgb(0%, 0%, 0%)" fill-opacity="0.6" d="M 131.527344 166.601562 C 131.527344 163.429688 126.765625 163.429688 126.765625 166.601562 C 126.765625 169.773438 131.527344 169.773438 131.527344 166.601562 Z M 131.527344 166.601562 "/>
<path fill-rule="nonzero" fill="rgb(0%, 0%, 0%)" fill-opacity="0.6" d="M 131.527344 158.695312 C 131.527344 155.523438 126.765625 155.523438 126.765625 158.695312 C 126.765625 161.867188 131.527344 161.867188 131.527344 158.695312 Z M 131.527344 158.695312 "/>
<path fill-rule="nonzero" fill="rgb(0%, 0%, 0%)" fill-opacity="0.6" d="M 131.527344 158.359375 C 131.527344 155.1875 126.765625 155.1875 126.765625 158.359375 C 126.765625 161.535156 131.527344 161.535156 131.527344 158.359375 Z M 131.527344 158.359375 "/>
<path fill-rule="nonzero" fill="rgb(0%, 0%, 0%)" fill-opacity="0.6" d="M 131.527344 185.777344 C 131.527344 182.605469 126.765625 182.605469 126.765625 185.777344 C 126.765625 188.949219 131.527344 188.949219 131.527344 185.777344 Z M 131.527344 185.777344 "/>
<path fill-rule="nonzero" fill="rgb(0%, 0%, 0%)" fill-opacity="0.6" d="M 131.527344 177.246094 C 131.527344 174.074219 126.765625 174.074219 126.765625 177.246094 C 126.765625 180.417969 131.527344 180.417969 131.527344 177.246094 Z M 131.527344 177.246094 "/>
<path fill-rule="nonzero" fill="rgb(0%, 0%, 0%)" fill-opacity="0.6" d="M 131.527344 158.359375 C 131.527344 155.1875 126.765625 155.1875 126.765625 158.359375 C 126.765625 161.535156 131.527344 161.535156 131.527344 158.359375 Z M 131.527344 158.359375 "/>
<path fill-rule="nonzero" fill="rgb(0%, 0%, 0%)" fill-opacity="0.6" d="M 131.527344 180.304688 C 131.527344 177.132812 126.765625 177.132812 126.765625 180.304688 C 126.765625 183.476562 131.527344 183.476562 131.527344 180.304688 Z M 131.527344 180.304688 "/>
<path fill-rule="nonzero" fill="rgb(0%, 0%, 0%)" fill-opacity="0.6" d="M 131.527344 177.246094 C 131.527344 174.074219 126.765625 174.074219 126.765625 177.246094 C 126.765625 180.417969 131.527344 180.417969 131.527344 177.246094 Z M 131.527344 177.246094 "/>
<path fill-rule="nonzero" fill="rgb(0%, 0%, 0%)" fill-opacity="0.6" d="M 131.527344 25.636719 C 131.527344 22.464844 126.765625 22.464844 126.765625 25.636719 C 126.765625 28.808594 131.527344 28.808594 131.527344 25.636719 Z M 131.527344 25.636719 "/>
<path fill-rule="nonzero" fill="rgb(0%, 0%, 0%)" fill-opacity="0.6" d="M 131.527344 185.863281 C 131.527344 182.691406 126.765625 182.691406 126.765625 185.863281 C 126.765625 189.035156 131.527344 189.035156 131.527344 185.863281 Z M 131.527344 185.863281 "/>
<path fill-rule="nonzero" fill="rgb(0%, 0%, 0%)" fill-opacity="0.6" d="M 131.527344 177.246094 C 131.527344 174.074219 126.765625 174.074219 126.765625 177.246094 C 126.765625 180.417969 131.527344 180.417969 131.527344 177.246094 Z M 131.527344 177.246094 "/>
<path fill-rule="nonzero" fill="rgb(0%, 0%, 0%)" fill-opacity="0.6" d="M 131.527344 177.246094 C 131.527344 174.074219 126.765625 174.074219 126.765625 177.246094 C 126.765625 180.417969 131.527344 180.417969 131.527344 177.246094 Z M 131.527344 177.246094 "/>
<path fill-rule="nonzero" fill="rgb(0%, 0%, 0%)" fill-opacity="0.6" d="M 131.527344 185.863281 C 131.527344 182.691406 126.765625 182.691406 126.765625 185.863281 C 126.765625 189.035156 131.527344 189.035156 131.527344 185.863281 Z M 131.527344 185.863281 "/>
<path fill-rule="nonzero" fill="rgb(0%, 0%, 0%)" fill-opacity="0.6" d="M 131.527344 25.636719 C 131.527344 22.464844 126.765625 22.464844 126.765625 25.636719 C 126.765625 28.808594 131.527344 28.808594 131.527344 25.636719 Z M 131.527344 25.636719 "/>
<path fill-rule="nonzero" fill="rgb(0%, 0%, 0%)" fill-opacity="0.6" d="M 131.527344 158.695312 C 131.527344 155.523438 126.765625 155.523438 126.765625 158.695312 C 126.765625 161.867188 131.527344 161.867188 131.527344 158.695312 Z M 131.527344 158.695312 "/>
<path fill-rule="nonzero" fill="rgb(0%, 0%, 0%)" fill-opacity="0.6" d="M 131.527344 185.863281 C 131.527344 182.691406 126.765625 182.691406 126.765625 185.863281 C 126.765625 189.035156 131.527344 189.035156 131.527344 185.863281 Z M 131.527344 185.863281 "/>
<path fill-rule="nonzero" fill="rgb(0%, 0%, 0%)" fill-opacity="0.6" d="M 277.628906 259.238281 C 277.628906 256.066406 272.871094 256.066406 272.871094 259.238281 C 272.871094 262.410156 277.628906 262.410156 277.628906 259.238281 Z M 277.628906 259.238281 "/>
<path fill-rule="nonzero" fill="rgb(0%, 0%, 0%)" fill-opacity="0.6" d="M 277.628906 259.238281 C 277.628906 256.066406 272.871094 256.066406 272.871094 259.238281 C 272.871094 262.410156 277.628906 262.410156 277.628906 259.238281 Z M 277.628906 259.238281 "/>
<path fill-rule="nonzero" fill="rgb(0%, 0%, 0%)" fill-opacity="0.6" d="M 277.628906 259.238281 C 277.628906 256.066406 272.871094 256.066406 272.871094 259.238281 C 272.871094 262.410156 277.628906 262.410156 277.628906 259.238281 Z M 277.628906 259.238281 "/>
<path fill-rule="nonzero" fill="rgb(0%, 0%, 0%)" fill-opacity="0.6" d="M 277.628906 263.761719 C 277.628906 260.589844 272.871094 260.589844 272.871094 263.761719 C 272.871094 266.933594 277.628906 266.933594 277.628906 263.761719 Z M 277.628906 263.761719 "/>
<path fill-rule="nonzero" fill="rgb(0%, 0%, 0%)" fill-opacity="0.6" d="M 277.628906 259.238281 C 277.628906 256.066406 272.871094 256.066406 272.871094 259.238281 C 272.871094 262.410156 277.628906 262.410156 277.628906 259.238281 Z M 277.628906 259.238281 "/>
<path fill-rule="nonzero" fill="rgb(0%, 0%, 0%)" fill-opacity="0.6" d="M 277.628906 259.238281 C 277.628906 256.066406 272.871094 256.066406 272.871094 259.238281 C 272.871094 262.410156 277.628906 262.410156 277.628906 259.238281 Z M 277.628906 259.238281 "/>
<path fill-rule="nonzero" fill="rgb(0%, 0%, 0%)" fill-opacity="0.6" d="M 277.628906 263.761719 C 277.628906 260.589844 272.871094 260.589844 272.871094 263.761719 C 272.871094 266.933594 277.628906 266.933594 277.628906 263.761719 Z M 277.628906 263.761719 "/>
<path fill-rule="nonzero" fill="rgb(0%, 0%, 0%)" fill-opacity="0.6" d="M 423.734375 281.714844 C 423.734375 278.542969 418.972656 278.542969 418.972656 281.714844 C 418.972656 284.886719 423.734375 284.886719 423.734375 281.714844 Z M 423.734375 281.714844 "/>
<path fill-rule="nonzero" fill="rgb(0%, 0%, 0%)" fill-opacity="0.6" d="M 423.734375 282.859375 C 423.734375 279.6875 418.972656 279.6875 418.972656 282.859375 C 418.972656 286.03125 423.734375 286.03125 423.734375 282.859375 Z M 423.734375 282.859375 "/>
<path fill-rule="nonzero" fill="rgb(0%, 0%, 0%)" fill-opacity="0.6" d="M 423.734375 281.65625 C 423.734375 278.484375 418.972656 278.484375 418.972656 281.65625 C 418.972656 284.828125 423.734375 284.828125 423.734375 281.65625 Z M 423.734375 281.65625 "/>
<path fill-rule="nonzero" fill="rgb(0%, 0%, 0%)" fill-opacity="0.6" d="M 423.734375 277.238281 C 423.734375 274.0625 418.972656 274.0625 418.972656 277.238281 C 418.972656 280.410156 423.734375 280.410156 423.734375 277.238281 Z M 423.734375 277.238281 "/>
<path fill-rule="nonzero" fill="rgb(0%, 0%, 0%)" fill-opacity="0.6" d="M 423.734375 273.398438 C 423.734375 270.226562 418.972656 270.226562 418.972656 273.398438 C 418.972656 276.570312 423.734375 276.570312 423.734375 273.398438 Z M 423.734375 273.398438 "/>
<path fill-rule="nonzero" fill="rgb(0%, 0%, 0%)" fill-opacity="0.6" d="M 423.734375 283.511719 C 423.734375 280.339844 418.972656 280.339844 418.972656 283.511719 C 418.972656 286.683594 423.734375 286.683594 423.734375 283.511719 Z M 423.734375 283.511719 "/>
<path fill-rule="nonzero" fill="rgb(0%, 0%, 0%)" fill-opacity="0.6" d="M 423.734375 273.398438 C 423.734375 270.226562 418.972656 270.226562 418.972656 273.398438 C 418.972656 276.570312 423.734375 276.570312 423.734375 273.398438 Z M 423.734375 273.398438 "/>
<path fill-rule="nonzero" fill="rgb(0%, 0%, 0%)" fill-opacity="0.6" d="M 423.734375 268.289062 C 423.734375 265.117188 418.972656 265.117188 418.972656 268.289062 C 418.972656 271.460938 423.734375 271.460938 423.734375 268.289062 Z M 423.734375 268.289062 "/>
<path fill-rule="nonzero" fill="rgb(0%, 0%, 0%)" fill-opacity="0.6" d="M 423.734375 280.066406 C 423.734375 276.890625 418.972656 276.890625 418.972656 280.066406 C 418.972656 283.238281 423.734375 283.238281 423.734375 280.066406 Z M 423.734375 280.066406 "/>
<path fill-rule="nonzero" fill="rgb(0%, 0%, 0%)" fill-opacity="0.6" d="M 423.734375 281.714844 C 423.734375 278.542969 418.972656 278.542969 418.972656 281.714844 C 418.972656 284.886719 423.734375 284.886719 423.734375 281.714844 Z M 423.734375 281.714844 "/>
<path fill-rule="nonzero" fill="rgb(0%, 0%, 0%)" fill-opacity="0.6" d="M 423.734375 280.066406 C 423.734375 276.890625 418.972656 276.890625 418.972656 280.066406 C 418.972656 283.238281 423.734375 283.238281 423.734375 280.066406 Z M 423.734375 280.066406 "/>
<path fill-rule="nonzero" fill="rgb(0%, 0%, 0%)" fill-opacity="0.6" d="M 423.734375 261.339844 C 423.734375 258.167969 418.972656 258.167969 418.972656 261.339844 C 418.972656 264.511719 423.734375 264.511719 423.734375 261.339844 Z M 423.734375 261.339844 "/>
<path fill-rule="nonzero" fill="rgb(0%, 0%, 0%)" fill-opacity="0.6" d="M 423.734375 277.238281 C 423.734375 274.0625 418.972656 274.0625 418.972656 277.238281 C 418.972656 280.410156 423.734375 280.410156 423.734375 277.238281 Z M 423.734375 277.238281 "/>
<path fill-rule="nonzero" fill="rgb(0%, 0%, 0%)" fill-opacity="0.6" d="M 423.734375 283.511719 C 423.734375 280.339844 418.972656 280.339844 418.972656 283.511719 C 418.972656 286.683594 423.734375 286.683594 423.734375 283.511719 Z M 423.734375 283.511719 "/>
<path fill-rule="nonzero" fill="rgb(0%, 0%, 0%)" fill-opacity="0.6" d="M 423.734375 268.289062 C 423.734375 265.117188 418.972656 265.117188 418.972656 268.289062 C 418.972656 271.460938 423.734375 271.460938 423.734375 268.289062 Z M 423.734375 268.289062 "/>
<path fill-rule="nonzero" fill="rgb(0%, 0%, 0%)" fill-opacity="0.6" d="M 423.734375 282.859375 C 423.734375 279.6875 418.972656 279.6875 418.972656 282.859375 C 418.972656 286.03125 423.734375 286.03125 423.734375 282.859375 Z M 423.734375 282.859375 "/>
<path fill-rule="nonzero" fill="rgb(0%, 0%, 0%)" fill-opacity="0.6" d="M 423.734375 261.339844 C 423.734375 258.167969 418.972656 258.167969 418.972656 261.339844 C 418.972656 264.511719 423.734375 264.511719 423.734375 261.339844 Z M 423.734375 261.339844 "/>
<path fill-rule="nonzero" fill="rgb(0%, 0%, 0%)" fill-opacity="0.6" d="M 423.734375 281.65625 C 423.734375 278.484375 418.972656 278.484375 418.972656 281.65625 C 418.972656 284.828125 423.734375 284.828125 423.734375 281.65625 Z M 423.734375 281.65625 "/>
<path fill-rule="nonzero" fill="rgb(0%, 0%, 0%)" fill-opacity="0.6" d="M 423.734375 261.339844 C 423.734375 258.167969 418.972656 258.167969 418.972656 261.339844 C 418.972656 264.511719 423.734375 264.511719 423.734375 261.339844 Z M 423.734375 261.339844 "/>
<path fill-rule="nonzero" fill="rgb(0%, 0%, 0%)" fill-opacity="0.6" d="M 423.734375 281.65625 C 423.734375 278.484375 418.972656 278.484375 418.972656 281.65625 C 418.972656 284.828125 423.734375 284.828125 423.734375 281.65625 Z M 423.734375 281.65625 "/>
<path fill-rule="nonzero" fill="rgb(0%, 0%, 0%)" fill-opacity="0.6" d="M 423.734375 281.65625 C 423.734375 278.484375 418.972656 278.484375 418.972656 281.65625 C 418.972656 284.828125 423.734375 284.828125 423.734375 281.65625 Z M 423.734375 281.65625 "/>
<path fill-rule="nonzero" fill="rgb(0%, 0%, 0%)" fill-opacity="0.6" d="M 423.734375 277.238281 C 423.734375 274.0625 418.972656 274.0625 418.972656 277.238281 C 418.972656 280.410156 423.734375 280.410156 423.734375 277.238281 Z M 423.734375 277.238281 "/>
<path fill-rule="nonzero" fill="rgb(0%, 0%, 0%)" fill-opacity="0.6" d="M 423.734375 282.859375 C 423.734375 279.6875 418.972656 279.6875 418.972656 282.859375 C 418.972656 286.03125 423.734375 286.03125 423.734375 282.859375 Z M 423.734375 282.859375 "/>
<path fill-rule="nonzero" fill="rgb(0%, 0%, 0%)" fill-opacity="0.6" d="M 423.734375 261.339844 C 423.734375 258.167969 418.972656 258.167969 418.972656 261.339844 C 418.972656 264.511719 423.734375 264.511719 423.734375 261.339844 Z M 423.734375 261.339844 "/>
<path fill-rule="nonzero" fill="rgb(0%, 0%, 0%)" fill-opacity="0.6" d="M 423.734375 283.511719 C 423.734375 280.339844 418.972656 280.339844 418.972656 283.511719 C 418.972656 286.683594 423.734375 286.683594 423.734375 283.511719 Z M 423.734375 283.511719 "/>
<path fill-rule="nonzero" fill="rgb(0%, 0%, 0%)" fill-opacity="0.6" d="M 423.734375 273.398438 C 423.734375 270.226562 418.972656 270.226562 418.972656 273.398438 C 418.972656 276.570312 423.734375 276.570312 423.734375 273.398438 Z M 423.734375 273.398438 "/>
<path fill-rule="nonzero" fill="rgb(0%, 0%, 0%)" fill-opacity="0.6" d="M 423.734375 280.066406 C 423.734375 276.890625 418.972656 276.890625 418.972656 280.066406 C 418.972656 283.238281 423.734375 283.238281 423.734375 280.066406 Z M 423.734375 280.066406 "/>
<path fill-rule="nonzero" fill="rgb(0%, 0%, 0%)" fill-opacity="0.6" d="M 423.734375 273.398438 C 423.734375 270.226562 418.972656 270.226562 418.972656 273.398438 C 418.972656 276.570312 423.734375 276.570312 423.734375 273.398438 Z M 423.734375 273.398438 "/>
<path fill-rule="nonzero" fill="rgb(0%, 0%, 0%)" fill-opacity="0.6" d="M 423.734375 268.289062 C 423.734375 265.117188 418.972656 265.117188 418.972656 268.289062 C 418.972656 271.460938 423.734375 271.460938 423.734375 268.289062 Z M 423.734375 268.289062 "/>
<path fill-rule="nonzero" fill="rgb(0%, 0%, 0%)" fill-opacity="0.6" d="M 423.734375 281.714844 C 423.734375 278.542969 418.972656 278.542969 418.972656 281.714844 C 418.972656 284.886719 423.734375 284.886719 423.734375 281.714844 Z M 423.734375 281.714844 "/>
<path fill-rule="nonzero" fill="rgb(0%, 0%, 0%)" fill-opacity="0.6" d="M 423.734375 281.714844 C 423.734375 278.542969 418.972656 278.542969 418.972656 281.714844 C 418.972656 284.886719 423.734375 284.886719 423.734375 281.714844 Z M 423.734375 281.714844 "/>
<path fill-rule="nonzero" fill="rgb(0%, 0%, 0%)" fill-opacity="0.6" d="M 423.734375 281.714844 C 423.734375 278.542969 418.972656 278.542969 418.972656 281.714844 C 418.972656 284.886719 423.734375 284.886719 423.734375 281.714844 Z M 423.734375 281.714844 "/>
<path fill-rule="nonzero" fill="rgb(0%, 0%, 0%)" fill-opacity="0.6" d="M 423.734375 283.511719 C 423.734375 280.339844 418.972656 280.339844 418.972656 283.511719 C 418.972656 286.683594 423.734375 286.683594 423.734375 283.511719 Z M 423.734375 283.511719 "/>
<path fill-rule="nonzero" fill="rgb(0%, 0%, 0%)" fill-opacity="0.6" d="M 423.734375 277.238281 C 423.734375 274.0625 418.972656 274.0625 418.972656 277.238281 C 418.972656 280.410156 423.734375 280.410156 423.734375 277.238281 Z M 423.734375 277.238281 "/>
<path fill-rule="nonzero" fill="rgb(0%, 0%, 0%)" fill-opacity="0.6" d="M 423.734375 283.511719 C 423.734375 280.339844 418.972656 280.339844 418.972656 283.511719 C 418.972656 286.683594 423.734375 286.683594 423.734375 283.511719 Z M 423.734375 283.511719 "/>
<path fill-rule="nonzero" fill="rgb(0%, 0%, 0%)" fill-opacity="0.6" d="M 423.734375 268.289062 C 423.734375 265.117188 418.972656 265.117188 418.972656 268.289062 C 418.972656 271.460938 423.734375 271.460938 423.734375 268.289062 Z M 423.734375 268.289062 "/>
<path fill-rule="nonzero" fill="rgb(0%, 0%, 0%)" fill-opacity="0.6" d="M 423.734375 273.398438 C 423.734375 270.226562 418.972656 270.226562 418.972656 273.398438 C 418.972656 276.570312 423.734375 276.570312 423.734375 273.398438 Z M 423.734375 273.398438 "/>
<path fill-rule="nonzero" fill="rgb(0%, 0%, 0%)" fill-opacity="0.6" d="M 423.734375 273.398438 C 423.734375 270.226562 418.972656 270.226562 418.972656 273.398438 C 418.972656 276.570312 423.734375 276.570312 423.734375 273.398438 Z M 423.734375 273.398438 "/>
<path fill-rule="nonzero" fill="rgb(0%, 0%, 0%)" fill-opacity="0.6" d="M 423.734375 277.238281 C 423.734375 274.0625 418.972656 274.0625 418.972656 277.238281 C 418.972656 280.410156 423.734375 280.410156 423.734375 277.238281 Z M 423.734375 277.238281 "/>
<path fill-rule="nonzero" fill="rgb(0%, 0%, 0%)" fill-opacity="0.6" d="M 423.734375 268.289062 C 423.734375 265.117188 418.972656 265.117188 418.972656 268.289062 C 418.972656 271.460938 423.734375 271.460938 423.734375 268.289062 Z M 423.734375 268.289062 "/>
<path fill-rule="nonzero" fill="rgb(0%, 0%, 0%)" fill-opacity="0.6" d="M 423.734375 280.066406 C 423.734375 276.890625 418.972656 276.890625 418.972656 280.066406 C 418.972656 283.238281 423.734375 283.238281 423.734375 280.066406 Z M 423.734375 280.066406 "/>
<path fill-rule="nonzero" fill="rgb(0%, 0%, 0%)" fill-opacity="0.6" d="M 423.734375 282.859375 C 423.734375 279.6875 418.972656 279.6875 418.972656 282.859375 C 418.972656 286.03125 423.734375 286.03125 423.734375 282.859375 Z M 423.734375 282.859375 "/>
<path fill-rule="nonzero" fill="rgb(0%, 0%, 0%)" fill-opacity="0.6" d="M 423.734375 261.339844 C 423.734375 258.167969 418.972656 258.167969 418.972656 261.339844 C 418.972656 264.511719 423.734375 264.511719 423.734375 261.339844 Z M 423.734375 261.339844 "/>
<path fill-rule="nonzero" fill="rgb(0%, 0%, 0%)" fill-opacity="0.6" d="M 423.734375 281.714844 C 423.734375 278.542969 418.972656 278.542969 418.972656 281.714844 C 418.972656 284.886719 423.734375 284.886719 423.734375 281.714844 Z M 423.734375 281.714844 "/>
<path fill-rule="nonzero" fill="rgb(0%, 0%, 0%)" fill-opacity="0.6" d="M 423.734375 283.511719 C 423.734375 280.339844 418.972656 280.339844 418.972656 283.511719 C 418.972656 286.683594 423.734375 286.683594 423.734375 283.511719 Z M 423.734375 283.511719 "/>
<path fill-rule="nonzero" fill="rgb(0%, 0%, 0%)" fill-opacity="0.6" d="M 423.734375 277.238281 C 423.734375 274.0625 418.972656 274.0625 418.972656 277.238281 C 418.972656 280.410156 423.734375 280.410156 423.734375 277.238281 Z M 423.734375 277.238281 "/>
<path fill-rule="nonzero" fill="rgb(0%, 0%, 0%)" fill-opacity="0.6" d="M 423.734375 268.289062 C 423.734375 265.117188 418.972656 265.117188 418.972656 268.289062 C 418.972656 271.460938 423.734375 271.460938 423.734375 268.289062 Z M 423.734375 268.289062 "/>
<path fill-rule="nonzero" fill="rgb(0%, 0%, 0%)" fill-opacity="0.6" d="M 423.734375 268.289062 C 423.734375 265.117188 418.972656 265.117188 418.972656 268.289062 C 418.972656 271.460938 423.734375 271.460938 423.734375 268.289062 Z M 423.734375 268.289062 "/>
<path fill-rule="nonzero" fill="rgb(0%, 0%, 0%)" fill-opacity="0.6" d="M 423.734375 261.339844 C 423.734375 258.167969 418.972656 258.167969 418.972656 261.339844 C 418.972656 264.511719 423.734375 264.511719 423.734375 261.339844 Z M 423.734375 261.339844 "/>
<path fill-rule="nonzero" fill="rgb(0%, 0%, 0%)" fill-opacity="0.6" d="M 423.734375 281.714844 C 423.734375 278.542969 418.972656 278.542969 418.972656 281.714844 C 418.972656 284.886719 423.734375 284.886719 423.734375 281.714844 Z M 423.734375 281.714844 "/>
<path fill-rule="nonzero" fill="rgb(0%, 0%, 0%)" fill-opacity="0.6" d="M 423.734375 261.339844 C 423.734375 258.167969 418.972656 258.167969 418.972656 261.339844 C 418.972656 264.511719 423.734375 264.511719 423.734375 261.339844 Z M 423.734375 261.339844 "/>
<path fill-rule="nonzero" fill="rgb(0%, 0%, 0%)" fill-opacity="0.6" d="M 423.734375 282.859375 C 423.734375 279.6875 418.972656 279.6875 418.972656 282.859375 C 418.972656 286.03125 423.734375 286.03125 423.734375 282.859375 Z M 423.734375 282.859375 "/>
<path fill="none" stroke-width="1.5" stroke-linecap="butt" stroke-linejoin="miter" stroke="rgb(0%, 0%, 0%)" stroke-opacity="1" stroke-miterlimit="2" d="M 172.192708 375.869792 L 172.192708 397.817708 " transform="matrix(0.75, 0, 0, 0.75, 0, 0)"/>
<path fill="none" stroke-width="1.5" stroke-linecap="butt" stroke-linejoin="miter" stroke="rgb(0%, 0%, 0%)" stroke-opacity="1" stroke-miterlimit="2" d="M 172.192708 397.817708 L 172.192708 397.817708 " transform="matrix(0.75, 0, 0, 0.75, 0, 0)"/>
<path fill="none" stroke-width="1.5" stroke-linecap="butt" stroke-linejoin="miter" stroke="rgb(0%, 0%, 0%)" stroke-opacity="1" stroke-miterlimit="2" d="M 172.192708 331.453125 L 172.192708 280.802083 " transform="matrix(0.75, 0, 0, 0.75, 0, 0)"/>
<path fill="none" stroke-width="1.5" stroke-linecap="butt" stroke-linejoin="miter" stroke="rgb(0%, 0%, 0%)" stroke-opacity="1" stroke-miterlimit="2" d="M 172.192708 280.802083 L 172.192708 280.802083 " transform="matrix(0.75, 0, 0, 0.75, 0, 0)"/>
<path fill="none" stroke-width="1.5" stroke-linecap="butt" stroke-linejoin="miter" stroke="rgb(0%, 0%, 0%)" stroke-opacity="1" stroke-miterlimit="2" d="M 367 388.59375 L 367 397.817708 " transform="matrix(0.75, 0, 0, 0.75, 0, 0)"/>
<path fill="none" stroke-width="1.5" stroke-linecap="butt" stroke-linejoin="miter" stroke="rgb(0%, 0%, 0%)" stroke-opacity="1" stroke-miterlimit="2" d="M 367 397.817708 L 367 397.817708 " transform="matrix(0.75, 0, 0, 0.75, 0, 0)"/>
<path fill="none" stroke-width="1.5" stroke-linecap="butt" stroke-linejoin="miter" stroke="rgb(0%, 0%, 0%)" stroke-opacity="1" stroke-miterlimit="2" d="M 367 379.364583 L 367 368.307292 " transform="matrix(0.75, 0, 0, 0.75, 0, 0)"/>
<path fill="none" stroke-width="1.5" stroke-linecap="butt" stroke-linejoin="miter" stroke="rgb(0%, 0%, 0%)" stroke-opacity="1" stroke-miterlimit="2" d="M 367 368.307292 L 367 368.307292 " transform="matrix(0.75, 0, 0, 0.75, 0, 0)"/>
<path fill="none" stroke-width="1.5" stroke-linecap="butt" stroke-linejoin="miter" stroke="rgb(0%, 0%, 0%)" stroke-opacity="1" stroke-miterlimit="2" d="M 561.807292 392.317708 L 561.807292 397.817708 " transform="matrix(0.75, 0, 0, 0.75, 0, 0)"/>
<path fill="none" stroke-width="1.5" stroke-linecap="butt" stroke-linejoin="miter" stroke="rgb(0%, 0%, 0%)" stroke-opacity="1" stroke-miterlimit="2" d="M 561.807292 397.817708 L 561.807292 397.817708 " transform="matrix(0.75, 0, 0, 0.75, 0, 0)"/>
<path fill="none" stroke-width="1.5" stroke-linecap="butt" stroke-linejoin="miter" stroke="rgb(0%, 0%, 0%)" stroke-opacity="1" stroke-miterlimit="2" d="M 561.807292 386.817708 L 561.807292 379.744792 " transform="matrix(0.75, 0, 0, 0.75, 0, 0)"/>
<path fill="none" stroke-width="1.5" stroke-linecap="butt" stroke-linejoin="miter" stroke="rgb(0%, 0%, 0%)" stroke-opacity="1" stroke-miterlimit="2" d="M 561.807292 379.744792 L 561.807292 379.744792 " transform="matrix(0.75, 0, 0, 0.75, 0, 0)"/>
<path fill-rule="nonzero" fill="rgb(0%, 0%, 0%)" fill-opacity="0.6" d="M 70.703125 281.902344 L 187.585938 281.902344 L 187.585938 248.589844 L 70.703125 248.589844 Z M 70.703125 281.902344 "/>
<path fill-rule="nonzero" fill="rgb(0%, 0%, 0%)" fill-opacity="0.6" d="M 216.808594 291.445312 L 333.691406 291.445312 L 333.691406 284.523438 L 216.808594 284.523438 Z M 216.808594 291.445312 "/>
<path fill-rule="nonzero" fill="rgb(0%, 0%, 0%)" fill-opacity="0.6" d="M 362.914062 294.238281 L 479.796875 294.238281 L 479.796875 290.113281 L 362.914062 290.113281 Z M 362.914062 294.238281 "/>
<path fill="none" stroke-width="1.5" stroke-linecap="butt" stroke-linejoin="miter" stroke="rgb(0%, 0%, 0%)" stroke-opacity="1" stroke-miterlimit="2" d="M 94.270833 355.026042 L 250.114583 355.026042 " transform="matrix(0.75, 0, 0, 0.75, 0, 0)"/>
<path fill="none" stroke-width="1.5" stroke-linecap="butt" stroke-linejoin="miter" stroke="rgb(0%, 0%, 0%)" stroke-opacity="1" stroke-miterlimit="2" d="M 289.078125 387.703125 L 444.921875 387.703125 " transform="matrix(0.75, 0, 0, 0.75, 0, 0)"/>
<path fill="none" stroke-width="1.5" stroke-linecap="butt" stroke-linejoin="miter" stroke="rgb(0%, 0%, 0%)" stroke-opacity="1" stroke-miterlimit="2" d="M 483.885417 392.104167 L 639.729167 392.104167 " transform="matrix(0.75, 0, 0, 0.75, 0, 0)"/>
<path fill="none" stroke-width="1.5" stroke-linecap="butt" stroke-linejoin="miter" stroke="rgb(21.176471%, 21.176471%, 21.176471%)" stroke-opacity="1" stroke-miterlimit="2" d="M 172.192708 416 L 172.192708 420 " transform="matrix(0.75, 0, 0, 0.75, 0, 0)"/>
<path fill="none" stroke-width="1.5" stroke-linecap="butt" stroke-linejoin="miter" stroke="rgb(21.176471%, 21.176471%, 21.176471%)" stroke-opacity="1" stroke-miterlimit="2" d="M 367 416 L 367 420 " transform="matrix(0.75, 0, 0, 0.75, 0, 0)"/>
<path fill="none" stroke-width="1.5" stroke-linecap="butt" stroke-linejoin="miter" stroke="rgb(21.176471%, 21.176471%, 21.176471%)" stroke-opacity="1" stroke-miterlimit="2" d="M 561.807292 416 L 561.807292 420 " transform="matrix(0.75, 0, 0, 0.75, 0, 0)"/>
<path fill="none" stroke-width="1.5" stroke-linecap="butt" stroke-linejoin="miter" stroke="rgb(21.176471%, 21.176471%, 21.176471%)" stroke-opacity="1" stroke-miterlimit="2" d="M 67 397.817708 L 63 397.817708 " transform="matrix(0.75, 0, 0, 0.75, 0, 0)"/>
<path fill="none" stroke-width="1.5" stroke-linecap="butt" stroke-linejoin="miter" stroke="rgb(21.176471%, 21.176471%, 21.176471%)" stroke-opacity="1" stroke-miterlimit="2" d="M 67 255.864583 L 63 255.864583 " transform="matrix(0.75, 0, 0, 0.75, 0, 0)"/>
<path fill="none" stroke-width="1.5" stroke-linecap="butt" stroke-linejoin="miter" stroke="rgb(21.176471%, 21.176471%, 21.176471%)" stroke-opacity="1" stroke-miterlimit="2" d="M 67 113.911458 L 63 113.911458 " transform="matrix(0.75, 0, 0, 0.75, 0, 0)"/>
</svg>
