<?xml version="1.0" encoding="UTF-8"?>
<svg xmlns="http://www.w3.org/2000/svg" xmlns:xlink="http://www.w3.org/1999/xlink" width="512" height="356" viewBox="0 0 512 356">
<defs>
<g>
<g id="glyph-0-0-c6fa476c">
<path d="M 6.859375 0 C 6.859375 0 5.765625 0 5.765625 0 C 5.765625 0 4.984375 -2.296875 4.984375 -2.296875 C 4.984375 -2.296875 2.03125 -2.296875 2.03125 -2.296875 C 2.03125 -2.296875 1.21875 0 1.21875 0 C 1.21875 0 0.171875 0 0.171875 0 C 0.171875 0 2.90625 -7.65625 2.90625 -7.65625 C 2.90625 -7.65625 4.171875 -7.65625 4.171875 -7.65625 C 4.171875 -7.65625 6.859375 0 6.859375 0 Z M 4.703125 -3.125 C 4.703125 -3.125 3.53125 -6.609375 3.53125 -6.609375 C 3.53125 -6.609375 2.265625 -3.125 2.265625 -3.125 C 2.265625 -3.125 4.703125 -3.125 4.703125 -3.125 Z M 4.703125 -3.125 "/>
</g>
<g id="glyph-0-1-c6fa476c">
<path d="M 5.140625 -0.90625 C 5.140625 1.515625 4.40625 2.28125 2.671875 2.28125 C 1.390625 2.28125 0.578125 1.671875 0.484375 0.625 C 0.484375 0.625 1.375 0.625 1.375 0.625 C 1.484375 1.296875 2.015625 1.546875 2.703125 1.546875 C 3.734375 1.546875 4.328125 1 4.328125 -0.46875 C 4.328125 -0.46875 4.328125 -0.828125 4.328125 -0.828125 C 3.75 -0.140625 3.265625 0.15625 2.578125 0.15625 C 1.28125 0.15625 0.296875 -0.96875 0.296875 -2.703125 C 0.296875 -4.484375 1.25 -5.65625 2.640625 -5.65625 C 3.34375 -5.65625 3.890625 -5.359375 4.328125 -4.703125 C 4.328125 -4.703125 4.328125 -5.5 4.328125 -5.5 C 4.328125 -5.5 5.140625 -5.5 5.140625 -5.5 C 5.140625 -5.5 5.140625 -0.90625 5.140625 -0.90625 Z M 4.234375 -2.71875 C 4.234375 -4.046875 3.6875 -4.84375 2.734375 -4.84375 C 1.8125 -4.84375 1.21875 -4.078125 1.21875 -2.75 C 1.21875 -1.421875 1.796875 -0.65625 2.75 -0.65625 C 3.671875 -0.65625 4.234375 -1.40625 4.234375 -2.71875 Z M 4.234375 -2.71875 "/>
</g>
<g id="glyph-0-2-c6fa476c">
<path d="M 5.390625 -2.5 C 5.390625 -2.5 1.328125 -2.5 1.328125 -2.5 C 1.359375 -1.234375 2.03125 -0.65625 2.953125 -0.65625 C 3.65625 -0.65625 4.140625 -0.9375 4.390625 -1.671875 C 4.390625 -1.671875 5.265625 -1.671875 5.265625 -1.671875 C 5.046875 -0.5625 4.171875 0.15625 2.921875 0.15625 C 1.375 0.15625 0.421875 -0.90625 0.421875 -2.71875 C 0.421875 -4.53125 1.40625 -5.65625 2.9375 -5.65625 C 3.96875 -5.65625 4.8125 -5.109375 5.171875 -4.203125 C 5.328125 -3.796875 5.390625 -3.296875 5.390625 -2.5 Z M 4.453125 -3.28125 C 4.453125 -4.140625 3.796875 -4.84375 2.921875 -4.84375 C 2.046875 -4.84375 1.421875 -4.1875 1.359375 -3.21875 C 1.359375 -3.21875 4.4375 -3.21875 4.4375 -3.21875 C 4.453125 -3.234375 4.453125 -3.28125 4.453125 -3.28125 Z M 4.453125 -3.28125 "/>
</g>
<g id="glyph-0-3-c6fa476c">
<path d="M 5.328125 -3.578125 C 5.328125 -1.140625 4.46875 0.15625 2.890625 0.15625 C 1.296875 0.15625 0.453125 -1.140625 0.453125 -3.640625 C 0.453125 -6.140625 1.28125 -7.4375 2.890625 -7.4375 C 4.5 -7.4375 5.328125 -6.15625 5.328125 -3.578125 Z M 4.375 -3.671875 C 4.375 -5.65625 3.890625 -6.625 2.890625 -6.625 C 1.890625 -6.625 1.390625 -5.671875 1.390625 -3.640625 C 1.390625 -1.59375 1.890625 -0.609375 2.859375 -0.609375 C 3.890625 -0.609375 4.375 -1.546875 4.375 -3.671875 Z M 4.375 -3.671875 "/>
</g>
<g id="glyph-0-4-c6fa476c">
<path d="M 5.453125 -1.78125 C 5.453125 -1.78125 4.359375 -1.78125 4.359375 -1.78125 C 4.359375 -1.78125 4.359375 0 4.359375 0 C 4.359375 0 3.4375 0 3.4375 0 C 3.4375 0 3.4375 -1.78125 3.4375 -1.78125 C 3.4375 -1.78125 0.296875 -1.78125 0.296875 -1.78125 C 0.296875 -1.78125 0.296875 -2.765625 0.296875 -2.765625 C 0.296875 -2.765625 3.671875 -7.4375 3.671875 -7.4375 C 3.671875 -7.4375 4.359375 -7.4375 4.359375 -7.4375 C 4.359375 -7.4375 4.359375 -2.609375 4.359375 -2.609375 C 4.359375 -2.609375 5.453125 -2.609375 5.453125 -2.609375 C 5.453125 -2.609375 5.453125 -1.78125 5.453125 -1.78125 Z M 3.4375 -2.609375 C 3.4375 -2.609375 3.4375 -5.875 3.4375 -5.875 C 3.4375 -5.875 1.109375 -2.609375 1.109375 -2.609375 C 1.109375 -2.609375 3.4375 -2.609375 3.4375 -2.609375 Z M 3.4375 -2.609375 "/>
</g>
<g id="glyph-0-5-c6fa476c">
<path d="M 5.390625 -2.3125 C 5.390625 -0.84375 4.375 0.15625 2.953125 0.15625 C 1.25 0.15625 0.453125 -1.078125 0.453125 -3.390625 C 0.453125 -5.984375 1.390625 -7.4375 3.125 -7.4375 C 4.25 -7.4375 5.046875 -6.71875 5.234375 -5.5 C 5.234375 -5.5 4.3125 -5.5 4.3125 -5.5 C 4.15625 -6.21875 3.703125 -6.625 3.0625 -6.625 C 2 -6.625 1.40625 -5.625 1.390625 -3.796875 C 1.796875 -4.34375 2.375 -4.625 3.109375 -4.625 C 4.4375 -4.625 5.390625 -3.703125 5.390625 -2.3125 Z M 4.4375 -2.234375 C 4.4375 -3.234375 3.890625 -3.8125 3 -3.8125 C 2.078125 -3.8125 1.453125 -3.21875 1.453125 -2.28125 C 1.453125 -1.328125 2.09375 -0.65625 2.96875 -0.65625 C 3.8125 -0.65625 4.4375 -1.296875 4.4375 -2.234375 Z M 4.4375 -2.234375 "/>
</g>
<g id="glyph-0-6-c6fa476c">
<path d="M 5.390625 -2.09375 C 5.390625 -0.75 4.359375 0.15625 2.890625 0.15625 C 1.421875 0.15625 0.390625 -0.75 0.390625 -2.109375 C 0.390625 -2.921875 0.8125 -3.5 1.65625 -3.921875 C 0.90625 -4.390625 0.65625 -4.765625 0.65625 -5.453125 C 0.65625 -6.625 1.578125 -7.4375 2.890625 -7.4375 C 4.203125 -7.4375 5.125 -6.625 5.125 -5.453125 C 5.125 -4.75 4.875 -4.375 4.109375 -3.921875 C 4.96875 -3.5 5.390625 -2.921875 5.390625 -2.09375 Z M 4.171875 -5.4375 C 4.171875 -6.15625 3.671875 -6.625 2.890625 -6.625 C 2.109375 -6.625 1.59375 -6.15625 1.59375 -5.453125 C 1.59375 -4.75 2.109375 -4.28125 2.890625 -4.28125 C 3.671875 -4.28125 4.171875 -4.75 4.171875 -5.4375 Z M 4.4375 -2.09375 C 4.4375 -2.96875 3.8125 -3.5 2.890625 -3.5 C 1.96875 -3.5 1.328125 -2.96875 1.328125 -2.09375 C 1.328125 -1.21875 1.96875 -0.65625 2.859375 -0.65625 C 3.8125 -0.65625 4.4375 -1.203125 4.4375 -2.09375 Z M 4.4375 -2.09375 "/>
</g>
<g id="glyph-1-0-c6fa476c">
<path d="M 5.359375 -5.265625 C 5.359375 -4.34375 4.828125 -3.5625 3.796875 -3.015625 C 3.796875 -3.015625 2.734375 -2.453125 2.734375 -2.453125 C 1.828125 -1.90625 1.484375 -1.515625 1.390625 -0.90625 C 1.390625 -0.90625 5.3125 -0.90625 5.3125 -0.90625 C 5.3125 -0.90625 5.3125 0 5.3125 0 C 5.3125 0 0.359375 0 0.359375 0 C 0.4375 -1.640625 0.890625 -2.34375 2.453125 -3.21875 C 2.453125 -3.21875 3.40625 -3.765625 3.40625 -3.765625 C 4.078125 -4.140625 4.421875 -4.65625 4.421875 -5.234375 C 4.421875 -6.03125 3.796875 -6.640625 2.953125 -6.640625 C 2.03125 -6.640625 1.515625 -6.109375 1.453125 -4.859375 C 1.453125 -4.859375 0.53125 -4.859375 0.53125 -4.859375 C 0.578125 -6.671875 1.453125 -7.4375 2.984375 -7.4375 C 4.390625 -7.4375 5.359375 -6.515625 5.359375 -5.265625 Z M 5.359375 -5.265625 "/>
</g>
<g id="glyph-2-0-c6fa476c">
<path d="M -1.890625 -5.015625 C -0.625 -4.90625 0.15625 -4.078125 0.15625 -2.765625 C 0.15625 -1.265625 -0.921875 -0.328125 -2.703125 -0.328125 C -4.53125 -0.328125 -5.65625 -1.296875 -5.65625 -2.765625 C -5.65625 -4 -5 -4.84375 -3.65625 -4.953125 C -3.65625 -4.953125 -3.65625 -4.0625 -3.65625 -4.0625 C -4.421875 -3.953125 -4.84375 -3.5 -4.84375 -2.765625 C -4.84375 -1.8125 -4.078125 -1.234375 -2.703125 -1.234375 C -1.390625 -1.234375 -0.65625 -1.8125 -0.65625 -2.78125 C -0.65625 -3.53125 -1.015625 -3.984375 -1.890625 -4.125 C -1.890625 -4.125 -1.890625 -5.015625 -1.890625 -5.015625 Z M -1.890625 -5.015625 "/>
</g>
<g id="glyph-2-1-c6fa476c">
<path d="M 0 -5.0625 C 0 -5.0625 0 -4.28125 0 -4.28125 C 0 -4.28125 -0.84375 -4.28125 -0.84375 -4.28125 C -0.125 -3.765625 0.15625 -3.25 0.15625 -2.4375 C 0.15625 -1.359375 -0.4375 -0.6875 -1.34375 -0.6875 C -1.34375 -0.6875 -5.5 -0.6875 -5.5 -0.6875 C -5.5 -0.6875 -5.5 -1.546875 -5.5 -1.546875 C -5.5 -1.546875 -1.6875 -1.546875 -1.6875 -1.546875 C -1.03125 -1.546875 -0.609375 -2 -0.609375 -2.6875 C -0.609375 -3.59375 -1.34375 -4.1875 -2.46875 -4.1875 C -2.46875 -4.1875 -5.5 -4.1875 -5.5 -4.1875 C -5.5 -4.1875 -5.5 -5.0625 -5.5 -5.0625 C -5.5 -5.0625 0 -5.0625 0 -5.0625 Z M 0 -5.0625 "/>
</g>
<g id="glyph-2-2-c6fa476c">
<path d="M 0 -5.109375 C 0 -5.109375 0 -4.234375 0 -4.234375 C 0 -4.234375 -3.8125 -4.234375 -3.8125 -4.234375 C -4.46875 -4.234375 -4.890625 -3.796875 -4.890625 -3.109375 C -4.890625 -2.21875 -4.15625 -1.609375 -3.03125 -1.609375 C -3.03125 -1.609375 0 -1.609375 0 -1.609375 C 0 -1.609375 0 -0.734375 0 -0.734375 C 0 -0.734375 -5.5 -0.734375 -5.5 -0.734375 C -5.5 -0.734375 -5.5 -1.546875 -5.5 -1.546875 C -5.5 -1.546875 -4.578125 -1.546875 -4.578125 -1.546875 C -5.34375 -2.03125 -5.65625 -2.546875 -5.65625 -3.375 C -5.65625 -4.4375 -5.078125 -5.109375 -4.15625 -5.109375 C -4.15625 -5.109375 0 -5.109375 0 -5.109375 Z M 0 -5.109375 "/>
</g>
<g id="glyph-3-0-c6fa476c">
<path d="M -2.703125 -5.359375 C -0.90625 -5.359375 0.15625 -4.40625 0.15625 -2.859375 C 0.15625 -1.296875 -0.90625 -0.375 -2.75 -0.375 C -4.59375 -0.375 -5.65625 -1.3125 -5.65625 -2.859375 C -5.65625 -4.4375 -4.609375 -5.359375 -2.703125 -5.359375 Z M -2.71875 -4.4375 C -4.078125 -4.4375 -4.84375 -3.859375 -4.84375 -2.859375 C -4.84375 -1.890625 -4.078125 -1.296875 -2.75 -1.296875 C -1.421875 -1.296875 -0.65625 -1.890625 -0.65625 -2.859375 C -0.65625 -3.828125 -1.421875 -4.4375 -2.71875 -4.4375 Z M -2.71875 -4.4375 "/>
</g>
<g id="glyph-4-0-c6fa476c">
<path d="M 0 -2.671875 C 0.046875 -2.375 0.078125 -2.15625 0.078125 -1.953125 C 0.078125 -1.265625 -0.234375 -0.890625 -0.796875 -0.890625 C -0.796875 -0.890625 -4.78125 -0.890625 -4.78125 -0.890625 C -4.78125 -0.890625 -4.78125 -0.140625 -4.78125 -0.140625 C -4.78125 -0.140625 -5.5 -0.140625 -5.5 -0.140625 C -5.5 -0.140625 -5.5 -0.890625 -5.5 -0.890625 C -5.5 -0.890625 -7.015625 -0.890625 -7.015625 -0.890625 C -7.015625 -0.890625 -7.015625 -1.765625 -7.015625 -1.765625 C -7.015625 -1.765625 -5.5 -1.765625 -5.5 -1.765625 C -5.5 -1.765625 -5.5 -2.671875 -5.5 -2.671875 C -5.5 -2.671875 -4.78125 -2.671875 -4.78125 -2.671875 C -4.78125 -2.671875 -4.78125 -1.765625 -4.78125 -1.765625 C -4.78125 -1.765625 -1.1875 -1.765625 -1.1875 -1.765625 C -0.796875 -1.765625 -0.6875 -1.875 -0.6875 -2.25 C -0.6875 -2.421875 -0.703125 -2.546875 -0.734375 -2.671875 C -0.734375 -2.671875 0 -2.671875 0 -2.671875 Z M 0 -2.671875 "/>
</g>
<g id="glyph-5-0-c6fa476c">
<path d="M 5.328125 -3.578125 C 5.328125 -1.140625 4.46875 0.15625 2.890625 0.15625 C 1.296875 0.15625 0.453125 -1.140625 0.453125 -3.640625 C 0.453125 -6.140625 1.28125 -7.4375 2.890625 -7.4375 C 4.5 -7.4375 5.328125 -6.15625 5.328125 -3.578125 Z M 4.375 -3.671875 C 4.375 -5.65625 3.890625 -6.625 2.890625 -6.625 C 1.890625 -6.625 1.390625 -5.671875 1.390625 -3.640625 C 1.390625 -1.59375 1.890625 -0.609375 2.859375 -0.609375 C 3.890625 -0.609375 4.375 -1.546875 4.375 -3.671875 Z M 4.375 -3.671875 "/>
</g>
<g id="glyph-6-0-c6fa476c">
<path d="M 5.390625 -2.46875 C 5.390625 -0.890625 4.34375 0.15625 2.828125 0.15625 C 1.515625 0.15625 0.671875 -0.4375 0.375 -1.90625 C 0.375 -1.90625 1.296875 -1.90625 1.296875 -1.90625 C 1.515625 -1.078125 2 -0.65625 2.8125 -0.65625 C 3.828125 -0.65625 4.4375 -1.265625 4.4375 -2.34375 C 4.4375 -3.4375 3.8125 -4.078125 2.8125 -4.078125 C 2.234375 -4.078125 1.875 -3.90625 1.453125 -3.390625 C 1.453125 -3.390625 0.59375 -3.390625 0.59375 -3.390625 C 0.59375 -3.390625 1.15625 -7.28125 1.15625 -7.28125 C 1.15625 -7.28125 5 -7.28125 5 -7.28125 C 5 -7.28125 5 -6.375 5 -6.375 C 5 -6.375 1.90625 -6.375 1.90625 -6.375 C 1.90625 -6.375 1.609375 -4.453125 1.609375 -4.453125 C 2.03125 -4.765625 2.453125 -4.90625 2.984375 -4.90625 C 4.40625 -4.90625 5.390625 -3.9375 5.390625 -2.46875 Z M 5.390625 -2.46875 "/>
</g>
<g id="glyph-7-0-c6fa476c">
<path d="M 5.328125 -3.578125 C 5.328125 -1.140625 4.46875 0.15625 2.890625 0.15625 C 1.296875 0.15625 0.453125 -1.140625 0.453125 -3.640625 C 0.453125 -6.140625 1.28125 -7.4375 2.890625 -7.4375 C 4.5 -7.4375 5.328125 -6.15625 5.328125 -3.578125 Z M 4.375 -3.671875 C 4.375 -5.65625 3.890625 -6.625 2.890625 -6.625 C 1.890625 -6.625 1.390625 -5.671875 1.390625 -3.640625 C 1.390625 -1.59375 1.890625 -0.609375 2.859375 -0.609375 C 3.890625 -0.609375 4.375 -1.546875 4.375 -3.671875 Z M 4.375 -3.671875 "/>
</g>
<g id="glyph-8-0-c6fa476c">
<path d="M 3.640625 0 C 3.640625 0 2.71875 0 2.71875 0 C 2.71875 0 2.71875 -5.296875 2.71875 -5.296875 C 2.71875 -5.296875 1.078125 -5.296875 1.078125 -5.296875 C 1.078125 -5.296875 1.078125 -5.96875 1.078125 -5.96875 C 2.5 -6.140625 2.703125 -6.296875 3.03125 -7.4375 C 3.03125 -7.4375 3.640625 -7.4375 3.640625 -7.4375 C 3.640625 -7.4375 3.640625 0 3.640625 0 Z M 3.640625 0 "/>
</g>
<g id="glyph-8-1-c6fa476c">
<path d="M 5.328125 -3.578125 C 5.328125 -1.140625 4.46875 0.15625 2.890625 0.15625 C 1.296875 0.15625 0.453125 -1.140625 0.453125 -3.640625 C 0.453125 -6.140625 1.28125 -7.4375 2.890625 -7.4375 C 4.5 -7.4375 5.328125 -6.15625 5.328125 -3.578125 Z M 4.375 -3.671875 C 4.375 -5.65625 3.890625 -6.625 2.890625 -6.625 C 1.890625 -6.625 1.390625 -5.671875 1.390625 -3.640625 C 1.390625 -1.59375 1.890625 -0.609375 2.859375 -0.609375 C 3.890625 -0.609375 4.375 -1.546875 4.375 -3.671875 Z M 4.375 -3.671875 "/>
</g>
<g id="glyph-8-2-c6fa476c">
<path d="M 5.359375 -5.265625 C 5.359375 -4.34375 4.828125 -3.5625 3.796875 -3.015625 C 3.796875 -3.015625 2.734375 -2.453125 2.734375 -2.453125 C 1.828125 -1.90625 1.484375 -1.515625 1.390625 -0.90625 C 1.390625 -0.90625 5.3125 -0.90625 5.3125 -0.90625 C 5.3125 -0.90625 5.3125 0 5.3125 0 C 5.3125 0 0.359375 0 0.359375 0 C 0.4375 -1.640625 0.890625 -2.34375 2.453125 -3.21875 C 2.453125 -3.21875 3.40625 -3.765625 3.40625 -3.765625 C 4.078125 -4.140625 4.421875 -4.65625 4.421875 -5.234375 C 4.421875 -6.03125 3.796875 -6.640625 2.953125 -6.640625 C 2.03125 -6.640625 1.515625 -6.109375 1.453125 -4.859375 C 1.453125 -4.859375 0.53125 -4.859375 0.53125 -4.859375 C 0.578125 -6.671875 1.453125 -7.4375 2.984375 -7.4375 C 4.390625 -7.4375 5.359375 -6.515625 5.359375 -5.265625 Z M 5.359375 -5.265625 "/>
</g>
<g id="glyph-9-0-c6fa476c">
<path d="M 5.328125 -3.578125 C 5.328125 -1.140625 4.46875 0.15625 2.890625 0.15625 C 1.296875 0.15625 0.453125 -1.140625 0.453125 -3.640625 C 0.453125 -6.140625 1.28125 -7.4375 2.890625 -7.4375 C 4.5 -7.4375 5.328125 -6.15625 5.328125 -3.578125 Z M 4.375 -3.671875 C 4.375 -5.65625 3.890625 -6.625 2.890625 -6.625 C 1.890625 -6.625 1.390625 -5.671875 1.390625 -3.640625 C 1.390625 -1.59375 1.890625 -0.609375 2.859375 -0.609375 C 3.890625 -0.609375 4.375 -1.546875 4.375 -3.671875 Z M 4.375 -3.671875 "/>
</g>
<g id="glyph-10-0-c6fa476c">
<path d="M 3.640625 0 C 3.640625 0 2.71875 0 2.71875 0 C 2.71875 0 2.71875 -5.296875 2.71875 -5.296875 C 2.71875 -5.296875 1.078125 -5.296875 1.078125 -5.296875 C 1.078125 -5.296875 1.078125 -5.96875 1.078125 -5.96875 C 2.5 -6.140625 2.703125 -6.296875 3.03125 -7.4375 C 3.03125 -7.4375 3.640625 -7.4375 3.640625 -7.4375 C 3.640625 -7.4375 3.640625 0 3.640625 0 Z M 3.640625 0 "/>
</g>
<g id="glyph-10-1-c6fa476c">
<path d="M 5.390625 -2.46875 C 5.390625 -0.890625 4.34375 0.15625 2.828125 0.15625 C 1.515625 0.15625 0.671875 -0.4375 0.375 -1.90625 C 0.375 -1.90625 1.296875 -1.90625 1.296875 -1.90625 C 1.515625 -1.078125 2 -0.65625 2.8125 -0.65625 C 3.828125 -0.65625 4.4375 -1.265625 4.4375 -2.34375 C 4.4375 -3.4375 3.8125 -4.078125 2.8125 -4.078125 C 2.234375 -4.078125 1.875 -3.90625 1.453125 -3.390625 C 1.453125 -3.390625 0.59375 -3.390625 0.59375 -3.390625 C 0.59375 -3.390625 1.15625 -7.28125 1.15625 -7.28125 C 1.15625 -7.28125 5 -7.28125 5 -7.28125 C 5 -7.28125 5 -6.375 5 -6.375 C 5 -6.375 1.90625 -6.375 1.90625 -6.375 C 1.90625 -6.375 1.609375 -4.453125 1.609375 -4.453125 C 2.03125 -4.765625 2.453125 -4.90625 2.984375 -4.90625 C 4.40625 -4.90625 5.390625 -3.9375 5.390625 -2.46875 Z M 5.390625 -2.46875 "/>
</g>
<g id="glyph-11-0-c6fa476c">
<path d="M 5.328125 -3.578125 C 5.328125 -1.140625 4.46875 0.15625 2.890625 0.15625 C 1.296875 0.15625 0.453125 -1.140625 0.453125 -3.640625 C 0.453125 -6.140625 1.28125 -7.4375 2.890625 -7.4375 C 4.5 -7.4375 5.328125 -6.15625 5.328125 -3.578125 Z M 4.375 -3.671875 C 4.375 -5.65625 3.890625 -6.625 2.890625 -6.625 C 1.890625 -6.625 1.390625 -5.671875 1.390625 -3.640625 C 1.390625 -1.59375 1.890625 -0.609375 2.859375 -0.609375 C 3.890625 -0.609375 4.375 -1.546875 4.375 -3.671875 Z M 4.375 -3.671875 "/>
</g>
</g>
</defs>
<path fill-rule="nonzero" fill="rgb(100%, 100%, 100%)" fill-opacity="1" d="M 0 0 L 512.25 0 L 512.25 355.5 L 0 355.5 Z M 0 0 "/>
<path fill-rule="nonzero" fill="rgb(92.156863%, 92.156863%, 92.156863%)" fill-opacity="1" d="M 50.25 312 L 500.25 312 L 500.25 12 L 50.25 12 Z M 50.25 312 "/>
<path fill="none" stroke-width="1.5" stroke-linecap="butt" stroke-linejoin="miter" stroke="rgb(100%, 100%, 100%)" stroke-opacity="1" stroke-miterlimit="2" d="M 94.270833 416 L 94.270833 16 " transform="matrix(0.75, 0, 0, 0.75, 0, 0)"/>
<path fill="none" stroke-width="1.5" stroke-linecap="butt" stroke-linejoin="miter" stroke="rgb(100%, 100%, 100%)" stroke-opacity="1" stroke-miterlimit="2" d="M 215.484375 416 L 215.484375 16 " transform="matrix(0.75, 0, 0, 0.75, 0, 0)"/>
<path fill="none" stroke-width="1.5" stroke-linecap="butt" stroke-linejoin="miter" stroke="rgb(100%, 100%, 100%)" stroke-opacity="1" stroke-miterlimit="2" d="M 336.697917 416 L 336.697917 16 " transform="matrix(0.75, 0, 0, 0.75, 0, 0)"/>
<path fill="none" stroke-width="1.5" stroke-linecap="butt" stroke-linejoin="miter" stroke="rgb(100%, 100%, 100%)" stroke-opacity="1" stroke-miterlimit="2" d="M 457.911458 416 L 457.911458 16 " transform="matrix(0.75, 0, 0, 0.75, 0, 0)"/>
<path fill="none" stroke-width="1.5" stroke-linecap="butt" stroke-linejoin="miter" stroke="rgb(100%, 100%, 100%)" stroke-opacity="1" stroke-miterlimit="2" d="M 579.119792 416 L 579.119792 16 " transform="matrix(0.75, 0, 0, 0.75, 0, 0)"/>
<path fill="none" stroke-width="1" stroke-linecap="butt" stroke-linejoin="miter" stroke="rgb(100%, 100%, 100%)" stroke-opacity="0.5" stroke-miterlimit="2" d="M 154.880208 416 L 154.880208 16 " transform="matrix(0.75, 0, 0, 0.75, 0, 0)"/>
<path fill="none" stroke-width="1" stroke-linecap="butt" stroke-linejoin="miter" stroke="rgb(100%, 100%, 100%)" stroke-opacity="0.5" stroke-miterlimit="2" d="M 276.088542 416 L 276.088542 16 " transform="matrix(0.75, 0, 0, 0.75, 0, 0)"/>
<path fill="none" stroke-width="1" stroke-linecap="butt" stroke-linejoin="miter" stroke="rgb(100%, 100%, 100%)" stroke-opacity="0.5" stroke-miterlimit="2" d="M 397.302083 416 L 397.302083 16 " transform="matrix(0.75, 0, 0, 0.75, 0, 0)"/>
<path fill="none" stroke-width="1" stroke-linecap="butt" stroke-linejoin="miter" stroke="rgb(100%, 100%, 100%)" stroke-opacity="0.5" stroke-miterlimit="2" d="M 518.515625 416 L 518.515625 16 " transform="matrix(0.75, 0, 0, 0.75, 0, 0)"/>
<path fill="none" stroke-width="1" stroke-linecap="butt" stroke-linejoin="miter" stroke="rgb(100%, 100%, 100%)" stroke-opacity="0.5" stroke-miterlimit="2" d="M 639.729167 416 L 639.729167 16 " transform="matrix(0.75, 0, 0, 0.75, 0, 0)"/>
<path fill="none" stroke-width="1.5" stroke-linecap="butt" stroke-linejoin="miter" stroke="rgb(100%, 100%, 100%)" stroke-opacity="1" stroke-miterlimit="2" d="M 67 397.817708 L 667 397.817708 " transform="matrix(0.75, 0, 0, 0.75, 0, 0)"/>
<path fill="none" stroke-width="1.5" stroke-linecap="butt" stroke-linejoin="miter" stroke="rgb(100%, 100%, 100%)" stroke-opacity="1" stroke-miterlimit="2" d="M 67 315.171875 L 667 315.171875 " transform="matrix(0.75, 0, 0, 0.75, 0, 0)"/>
<path fill="none" stroke-width="1.5" stroke-linecap="butt" stroke-linejoin="miter" stroke="rgb(100%, 100%, 100%)" stroke-opacity="1" stroke-miterlimit="2" d="M 67 232.53125 L 667 232.53125 " transform="matrix(0.75, 0, 0, 0.75, 0, 0)"/>
<path fill="none" stroke-width="1.5" stroke-linecap="butt" stroke-linejoin="miter" stroke="rgb(100%, 100%, 100%)" stroke-opacity="1" stroke-miterlimit="2" d="M 67 149.885417 L 667 149.885417 " transform="matrix(0.75, 0, 0, 0.75, 0, 0)"/>
<path fill="none" stroke-width="1.5" stroke-linecap="butt" stroke-linejoin="miter" stroke="rgb(100%, 100%, 100%)" stroke-opacity="1" stroke-miterlimit="2" d="M 67 67.239583 L 667 67.239583 " transform="matrix(0.75, 0, 0, 0.75, 0, 0)"/>
<path fill="none" stroke-width="1" stroke-linecap="butt" stroke-linejoin="miter" stroke="rgb(100%, 100%, 100%)" stroke-opacity="0.5" stroke-miterlimit="2" d="M 67 356.494792 L 667 356.494792 " transform="matrix(0.75, 0, 0, 0.75, 0, 0)"/>
<path fill="none" stroke-width="1" stroke-linecap="butt" stroke-linejoin="miter" stroke="rgb(100%, 100%, 100%)" stroke-opacity="0.5" stroke-miterlimit="2" d="M 67 273.848958 L 667 273.848958 " transform="matrix(0.75, 0, 0, 0.75, 0, 0)"/>
<path fill="none" stroke-width="1" stroke-linecap="butt" stroke-linejoin="miter" stroke="rgb(100%, 100%, 100%)" stroke-opacity="0.5" stroke-miterlimit="2" d="M 67 191.208333 L 667 191.208333 " transform="matrix(0.75, 0, 0, 0.75, 0, 0)"/>
<path fill="none" stroke-width="1" stroke-linecap="butt" stroke-linejoin="miter" stroke="rgb(100%, 100%, 100%)" stroke-opacity="0.5" stroke-miterlimit="2" d="M 67 108.5625 L 667 108.5625 " transform="matrix(0.75, 0, 0, 0.75, 0, 0)"/>
<path fill="none" stroke-width="1" stroke-linecap="butt" stroke-linejoin="miter" stroke="rgb(100%, 100%, 100%)" stroke-opacity="0.5" stroke-miterlimit="2" d="M 67 25.916667 L 667 25.916667 " transform="matrix(0.75, 0, 0, 0.75, 0, 0)"/>
<g fill="rgb(0%, 0%, 0%)" fill-opacity="1">
<use xlink:href="#glyph-0-0-c6fa476c" x="265.910271" y="340.925995"/>
</g>
<g fill="rgb(0%, 0%, 0%)" fill-opacity="1">
<use xlink:href="#glyph-0-1-c6fa476c" x="272.91378" y="340.925995"/>
</g>
<g fill="rgb(0%, 0%, 0%)" fill-opacity="1">
<use xlink:href="#glyph-0-2-c6fa476c" x="278.751755" y="340.925995"/>
</g>
<g fill="rgb(30.980393%, 30.980393%, 30.980393%)" fill-opacity="1">
<use xlink:href="#glyph-0-3-c6fa476c" x="67.785553" y="326.443497"/>
</g>
<g fill="rgb(30.980393%, 30.980393%, 30.980393%)" fill-opacity="1">
<use xlink:href="#glyph-1-0-c6fa476c" x="155.775661" y="326.443497"/>
</g>
<g fill="rgb(30.980393%, 30.980393%, 30.980393%)" fill-opacity="1">
<use xlink:href="#glyph-0-3-c6fa476c" x="161.613647" y="326.443497"/>
</g>
<g fill="rgb(30.980393%, 30.980393%, 30.980393%)" fill-opacity="1">
<use xlink:href="#glyph-0-4-c6fa476c" x="246.684746" y="326.443497"/>
</g>
<g fill="rgb(30.980393%, 30.980393%, 30.980393%)" fill-opacity="1">
<use xlink:href="#glyph-0-3-c6fa476c" x="252.522743" y="326.443497"/>
</g>
<g fill="rgb(30.980393%, 30.980393%, 30.980393%)" fill-opacity="1">
<use xlink:href="#glyph-0-5-c6fa476c" x="337.593864" y="326.443497"/>
</g>
<g fill="rgb(30.980393%, 30.980393%, 30.980393%)" fill-opacity="1">
<use xlink:href="#glyph-0-3-c6fa476c" x="343.431862" y="326.443497"/>
</g>
<g fill="rgb(30.980393%, 30.980393%, 30.980393%)" fill-opacity="1">
<use xlink:href="#glyph-0-6-c6fa476c" x="428.50296" y="326.443497"/>
</g>
<g fill="rgb(30.980393%, 30.980393%, 30.980393%)" fill-opacity="1">
<use xlink:href="#glyph-0-3-c6fa476c" x="434.340958" y="326.443497"/>
</g>
<g fill="rgb(0%, 0%, 0%)" fill-opacity="1">
<use xlink:href="#glyph-2-0-c6fa476c" x="22.197006" y="174.841473"/>
</g>
<g fill="rgb(0%, 0%, 0%)" fill-opacity="1">
<use xlink:href="#glyph-3-0-c6fa476c" x="22.197006" y="169.591484"/>
</g>
<g fill="rgb(0%, 0%, 0%)" fill-opacity="1">
<use xlink:href="#glyph-2-1-c6fa476c" x="22.197006" y="163.753475"/>
</g>
<g fill="rgb(0%, 0%, 0%)" fill-opacity="1">
<use xlink:href="#glyph-2-2-c6fa476c" x="22.197006" y="157.915466"/>
</g>
<g fill="rgb(0%, 0%, 0%)" fill-opacity="1">
<use xlink:href="#glyph-4-0-c6fa476c" x="22.197006" y="152.07748"/>
</g>
<g fill="rgb(30.980393%, 30.980393%, 30.980393%)" fill-opacity="1">
<use xlink:href="#glyph-5-0-c6fa476c" x="38.411997" y="302.19088"/>
</g>
<g fill="rgb(30.980393%, 30.980393%, 30.980393%)" fill-opacity="1">
<use xlink:href="#glyph-6-0-c6fa476c" x="32.574002" y="240.207436"/>
</g>
<g fill="rgb(30.980393%, 30.980393%, 30.980393%)" fill-opacity="1">
<use xlink:href="#glyph-7-0-c6fa476c" x="38.411997" y="240.207436"/>
</g>
<g fill="rgb(30.980393%, 30.980393%, 30.980393%)" fill-opacity="1">
<use xlink:href="#glyph-8-0-c6fa476c" x="26.736011" y="178.223946"/>
</g>
<g fill="rgb(30.980393%, 30.980393%, 30.980393%)" fill-opacity="1">
<use xlink:href="#glyph-8-1-c6fa476c" x="32.574002" y="178.223946"/>
</g>
<g fill="rgb(30.980393%, 30.980393%, 30.980393%)" fill-opacity="1">
<use xlink:href="#glyph-9-0-c6fa476c" x="38.411997" y="178.223946"/>
</g>
<g fill="rgb(30.980393%, 30.980393%, 30.980393%)" fill-opacity="1">
<use xlink:href="#glyph-10-0-c6fa476c" x="26.736011" y="116.240433"/>
</g>
<g fill="rgb(30.980393%, 30.980393%, 30.980393%)" fill-opacity="1">
<use xlink:href="#glyph-10-1-c6fa476c" x="32.574002" y="116.240433"/>
</g>
<g fill="rgb(30.980393%, 30.980393%, 30.980393%)" fill-opacity="1">
<use xlink:href="#glyph-11-0-c6fa476c" x="38.411997" y="116.240433"/>
</g>
<g fill="rgb(30.980393%, 30.980393%, 30.980393%)" fill-opacity="1">
<use xlink:href="#glyph-8-2-c6fa476c" x="26.736011" y="54.256989"/>
</g>
<g fill="rgb(30.980393%, 30.980393%, 30.980393%)" fill-opacity="1">
<use xlink:href="#glyph-8-1-c6fa476c" x="32.574002" y="54.256989"/>
</g>
<g fill="rgb(30.980393%, 30.980393%, 30.980393%)" fill-opacity="1">
<use xlink:href="#glyph-9-0-c6fa476c" x="38.411997" y="54.256989"/>
</g>
<path fill-rule="nonzero" fill="rgb(0%, 0%, 0%)" fill-opacity="0.6" d="M 70.703125 298.363281 L 116.15625 298.363281 L 116.15625 221.503906 L 70.703125 221.503906 Z M 70.703125 298.363281 "/>
<path fill-rule="nonzero" fill="rgb(0%, 0%, 0%)" fill-opacity="0.6" d="M 116.160156 298.363281 L 161.613281 298.363281 L 161.613281 171.917969 L 116.160156 171.917969 Z M 116.160156 298.363281 "/>
<path fill-rule="nonzero" fill="rgb(0%, 0%, 0%)" fill-opacity="0.6" d="M 161.613281 298.363281 L 207.066406 298.363281 L 207.066406 25.636719 L 161.613281 25.636719 Z M 161.613281 298.363281 "/>
<path fill-rule="nonzero" fill="rgb(0%, 0%, 0%)" fill-opacity="0.6" d="M 207.066406 298.363281 L 252.519531 298.363281 L 252.519531 91.339844 L 207.066406 91.339844 Z M 207.066406 298.363281 "/>
<path fill-rule="nonzero" fill="rgb(0%, 0%, 0%)" fill-opacity="0.6" d="M 252.523438 298.363281 L 297.976562 298.363281 L 297.976562 188.03125 L 252.523438 188.03125 Z M 252.523438 298.363281 "/>
<path fill-rule="nonzero" fill="rgb(0%, 0%, 0%)" fill-opacity="0.6" d="M 297.976562 298.363281 L 343.429688 298.363281 L 343.429688 238.859375 L 297.976562 238.859375 Z M 297.976562 298.363281 "/>
<path fill-rule="nonzero" fill="rgb(0%, 0%, 0%)" fill-opacity="0.6" d="M 343.433594 298.363281 L 388.886719 298.363281 L 388.886719 274.808594 L 343.433594 274.808594 Z M 343.433594 298.363281 "/>
<path fill-rule="nonzero" fill="rgb(0%, 0%, 0%)" fill-opacity="0.6" d="M 388.886719 298.363281 L 434.339844 298.363281 L 434.339844 290.925781 L 388.886719 290.925781 Z M 388.886719 298.363281 "/>
<path fill-rule="nonzero" fill="rgb(0%, 0%, 0%)" fill-opacity="0.6" d="M 434.339844 298.363281 L 479.792969 298.363281 L 479.792969 297.125 L 434.339844 297.125 Z M 434.339844 298.363281 "/>
<path fill="none" stroke-width="1.5" stroke-linecap="butt" stroke-linejoin="miter" stroke="rgb(21.176471%, 21.176471%, 21.176471%)" stroke-opacity="1" stroke-miterlimit="2" d="M 94.270833 416 L 94.270833 420 " transform="matrix(0.75, 0, 0, 0.75, 0, 0)"/>
<path fill="none" stroke-width="1.5" stroke-linecap="butt" stroke-linejoin="miter" stroke="rgb(21.176471%, 21.176471%, 21.176471%)" stroke-opacity="1" stroke-miterlimit="2" d="M 215.484375 416 L 215.484375 420 " transform="matrix(0.75, 0, 0, 0.75, 0, 0)"/>
<path fill="none" stroke-width="1.5" stroke-linecap="butt" stroke-linejoin="miter" stroke="rgb(21.176471%, 21.176471%, 21.176471%)" stroke-opacity="1" stroke-miterlimit="2" d="M 336.697917 416 L 336.697917 420 " transform="matrix(0.75, 0, 0, 0.75, 0, 0)"/>
<path fill="none" stroke-width="1.5" stroke-linecap="butt" stroke-linejoin="miter" stroke="rgb(21.176471%, 21.176471%, 21.176471%)" stroke-opacity="1" stroke-miterlimit="2" d="M 457.911458 416 L 457.911458 420 " transform="matrix(0.75, 0, 0, 0.75, 0, 0)"/>
<path fill="none" stroke-width="1.5" stroke-linecap="butt" stroke-linejoin="miter" stroke="rgb(21.176471%, 21.176471%, 21.176471%)" stroke-opacity="1" stroke-miterlimit="2" d="M 579.119792 416 L 579.119792 420 " transform="matrix(0.75, 0, 0, 0.75, 0, 0)"/>
<path fill="none" stroke-width="1.5" stroke-linecap="butt" stroke-linejoin="miter" stroke="rgb(21.176471%, 21.176471%, 21.176471%)" stroke-opacity="1" stroke-miterlimit="2" d="M 67 397.817708 L 63 397.817708 " transform="matrix(0.75, 0, 0, 0.75, 0, 0)"/>
<path fill="none" stroke-width="1.5" stroke-linecap="butt" stroke-linejoin="miter" stroke="rgb(21.176471%, 21.176471%, 21.176471%)" stroke-opacity="1" stroke-miterlimit="2" d="M 67 315.171875 L 63 315.171875 " transform="matrix(0.75, 0, 0, 0.75, 0, 0)"/>
<path fill="none" stroke-width="1.5" stroke-linecap="butt" stroke-linejoin="miter" stroke="rgb(21.176471%, 21.176471%, 21.176471%)" stroke-opacity="1" stroke-miterlimit="2" d="M 67 232.53125 L 63 232.53125 " transform="matrix(0.75, 0, 0, 0.75, 0, 0)"/>
<path fill="none" stroke-width="1.5" stroke-linecap="butt" stroke-linejoin="miter" stroke="rgb(21.176471%, 21.176471%, 21.176471%)" stroke-opacity="1" stroke-miterlimit="2" d="M 67 149.885417 L 63 149.885417 " transform="matrix(0.75, 0, 0, 0.75, 0, 0)"/>
<path fill="none" stroke-width="1.5" stroke-linecap="butt" stroke-linejoin="miter" stroke="rgb(21.176471%, 21.176471%, 21.176471%)" stroke-opacity="1" stroke-miterlimit="2" d="M 67 67.239583 L 63 67.239583 " transform="matrix(0.75, 0, 0, 0.75, 0, 0)"/>
</svg>
